<svg width="150" height="37" viewBox="0 0 150 37" fill="none" xmlns="http://www.w3.org/2000/svg">
<path d="M16.155 18.09H12.195V36H3.33V18.09H0.585V10.755H3.33V10.53C3.33 7.29 4.275 4.815 6.165 3.105C8.085 1.365 10.83 0.494998 14.4 0.494998C15.12 0.494998 15.675 0.509998 16.065 0.539998V8.055C15.825 8.025 15.495 8.01 15.075 8.01C14.115 8.01 13.41 8.235 12.96 8.685C12.51 9.105 12.255 9.795 12.195 10.755H16.155V18.09ZM45.1371 10.755V36H36.2721V32.4C35.5221 33.54 34.4871 34.47 33.1671 35.19C31.8471 35.88 30.3321 36.225 28.6221 36.225C25.6821 36.225 23.3571 35.265 21.6471 33.345C19.9671 31.395 19.1271 28.755 19.1271 25.425V10.755H27.9021V24.3C27.9021 25.74 28.2771 26.88 29.0271 27.72C29.8071 28.53 30.8271 28.935 32.0871 28.935C33.3771 28.935 34.3971 28.53 35.1471 27.72C35.8971 26.88 36.2721 25.74 36.2721 24.3V10.755H45.1371ZM66.6717 10.53C69.5817 10.53 71.8917 11.505 73.6017 13.455C75.3117 15.375 76.1667 17.985 76.1667 21.285V36H67.3467V22.455C67.3467 21.015 66.9717 19.89 66.2217 19.08C65.4717 18.24 64.4667 17.82 63.2067 17.82C61.8867 17.82 60.8517 18.24 60.1017 19.08C59.3517 19.89 58.9767 21.015 58.9767 22.455V36H50.1567V10.755H58.9767V14.355C59.7567 13.215 60.8067 12.3 62.1267 11.61C63.4467 10.89 64.9617 10.53 66.6717 10.53ZM79.5663 23.355C79.5663 20.745 80.0313 18.465 80.9613 16.515C81.9213 14.565 83.2263 13.065 84.8763 12.015C86.5263 10.965 88.3563 10.44 90.3663 10.44C91.9863 10.44 93.4263 10.785 94.6863 11.475C95.9763 12.135 96.9813 13.05 97.7013 14.22V2.7H106.566V36H97.7013V32.49C97.0113 33.66 96.0363 34.59 94.7763 35.28C93.5163 35.97 92.0313 36.315 90.3213 36.315C88.3113 36.315 86.4813 35.79 84.8313 34.74C83.2113 33.69 81.9213 32.19 80.9613 30.24C80.0313 28.26 79.5663 25.965 79.5663 23.355ZM97.7463 23.355C97.7463 21.735 97.2963 20.46 96.3963 19.53C95.5263 18.6 94.4463 18.135 93.1563 18.135C91.8363 18.135 90.7413 18.6 89.8713 19.53C89.0013 20.43 88.5663 21.705 88.5663 23.355C88.5663 24.975 89.0013 26.265 89.8713 27.225C90.7413 28.155 91.8363 28.62 93.1563 28.62C94.4463 28.62 95.5263 28.155 96.3963 27.225C97.2963 26.295 97.7463 25.005 97.7463 23.355ZM120.412 2.7V36H111.592V2.7H120.412ZM149.555 23.085C149.555 23.775 149.51 24.465 149.42 25.155H132.725C132.815 26.535 133.19 27.57 133.85 28.26C134.54 28.92 135.41 29.25 136.46 29.25C137.93 29.25 138.98 28.59 139.61 27.27H149.015C148.625 29.01 147.86 30.57 146.72 31.95C145.61 33.3 144.2 34.365 142.49 35.145C140.78 35.925 138.89 36.315 136.82 36.315C134.33 36.315 132.11 35.79 130.16 34.74C128.24 33.69 126.725 32.19 125.615 30.24C124.535 28.29 123.995 25.995 123.995 23.355C123.995 20.715 124.535 18.435 125.615 16.515C126.695 14.565 128.195 13.065 130.115 12.015C132.065 10.965 134.3 10.44 136.82 10.44C139.31 10.44 141.515 10.95 143.435 11.97C145.355 12.99 146.855 14.46 147.935 16.38C149.015 18.27 149.555 20.505 149.555 23.085ZM140.555 20.88C140.555 19.8 140.195 18.96 139.475 18.36C138.755 17.73 137.855 17.415 136.775 17.415C135.695 17.415 134.81 17.715 134.12 18.315C133.43 18.885 132.98 19.74 132.77 20.88H140.555Z" fill="white"/>
</svg>
