<svg width="1221" height="479" viewBox="0 0 1221 479" fill="none" xmlns="http://www.w3.org/2000/svg">
<g filter="url(#filter0_d_18_193)">
<path fill-rule="evenodd" clip-rule="evenodd" d="M1147.65 454.4C1143.35 451.894 1132.28 441.846 1132.89 435.128C1133.5 428.433 1120.59 429.268 1111.98 421.738C1103.37 414.184 1106.45 389.899 1097.22 384.016C1087.99 378.156 1081.22 359.731 1092.29 360.554C1103.36 361.401 1105.2 353.012 1096.6 342.141C1087.99 331.245 1056.64 327.056 1055.39 311.125C1054.16 295.205 998.207 257.47 973.605 249.94C969.234 248.621 963.974 246.418 958.235 243.791V422.634C963.957 427.84 971.029 432.028 980.366 432.622C1007.42 434.292 1000.67 413.337 1005.57 413.337C1010.51 413.337 1012.36 401.606 1017.89 392.393C1023.43 383.192 1047.41 390.71 1061.55 405.77C1075.69 420.879 1092.29 465.284 1107.05 461.095C1121.82 456.918 1137.2 472.826 1150.72 471.966C1164.27 471.167 1151.95 456.943 1147.65 454.4ZM1182.69 305.253C1182.69 312.795 1172.88 316.996 1157.48 325.349C1142.13 333.739 1114.18 315.761 1113.2 327.867C1112.61 335.422 1130.43 348.823 1147.03 348.823C1163.64 348.823 1190.09 326.197 1190.09 319.502C1190.09 312.807 1200.54 301.064 1196.23 294.37C1191.93 287.663 1182.69 297.711 1182.69 305.253ZM1203.61 273.427C1193.78 265.025 1185.17 259.154 1197.45 275.061C1209.77 291.017 1203.14 304.515 1210.37 301.925C1222.05 297.736 1213.44 281.792 1203.61 273.427Z" fill="#0AA472"/>
<path d="M1147.65 454.4L1147.71 454.293L1147.71 454.292L1147.65 454.4ZM1132.89 435.128L1132.76 435.116L1132.76 435.116L1132.89 435.128ZM1111.98 421.738L1111.9 421.832L1111.9 421.832L1111.98 421.738ZM1097.22 384.016L1097.28 383.91L1097.28 383.91L1097.22 384.016ZM1092.29 360.554L1092.3 360.429L1092.3 360.429L1092.29 360.554ZM1096.6 342.141L1096.51 342.218L1096.51 342.218L1096.6 342.141ZM1055.39 311.125L1055.26 311.134L1055.26 311.134L1055.39 311.125ZM973.605 249.94L973.642 249.821L973.641 249.821L973.605 249.94ZM958.235 243.791L958.287 243.677L958.11 243.596V243.791H958.235ZM958.235 422.634H958.11V422.689L958.151 422.726L958.235 422.634ZM980.366 432.622L980.359 432.746H980.359L980.366 432.622ZM1017.89 392.393L1017.78 392.328L1017.78 392.329L1017.89 392.393ZM1061.55 405.77L1061.65 405.685L1061.65 405.685L1061.55 405.77ZM1107.05 461.095L1107.02 460.975L1107.02 460.975L1107.05 461.095ZM1150.72 471.966L1150.71 471.842L1150.71 471.842L1150.72 471.966ZM1157.48 325.349L1157.42 325.239L1157.42 325.24L1157.48 325.349ZM1113.2 327.867L1113.07 327.857L1113.07 327.858L1113.2 327.867ZM1196.23 294.37L1196.13 294.437L1196.13 294.437L1196.23 294.37ZM1203.61 273.427L1203.53 273.522L1203.53 273.522L1203.61 273.427ZM1197.45 275.061L1197.55 274.985L1197.55 274.985L1197.45 275.061ZM1210.37 301.925L1210.41 302.042L1210.41 302.042L1210.37 301.925ZM1147.71 454.292C1145.57 453.048 1141.74 449.919 1138.52 446.261C1136.91 444.433 1135.46 442.477 1134.45 440.563C1133.43 438.646 1132.87 436.784 1133.01 435.139L1132.76 435.116C1132.61 436.831 1133.2 438.744 1134.22 440.679C1135.25 442.617 1136.72 444.589 1138.33 446.426C1141.57 450.099 1145.42 453.247 1147.58 454.508L1147.71 454.292ZM1133.01 435.139C1133.17 433.414 1132.45 432.172 1131.17 431.171C1129.89 430.177 1128.05 429.413 1125.94 428.629C1121.7 427.056 1116.35 425.39 1112.07 421.644L1111.9 421.832C1116.23 425.616 1121.63 427.298 1125.85 428.863C1127.97 429.649 1129.77 430.401 1131.01 431.369C1132.25 432.329 1132.91 433.494 1132.76 435.116L1133.01 435.139ZM1112.07 421.644C1109.94 419.779 1108.53 416.871 1107.46 413.447C1106.4 410.025 1105.69 406.105 1104.96 402.227C1104.23 398.353 1103.47 394.52 1102.33 391.288C1101.18 388.056 1099.63 385.403 1097.28 383.91L1097.15 384.121C1099.42 385.569 1100.95 388.158 1102.09 391.371C1103.23 394.583 1103.98 398.396 1104.71 402.273C1105.44 406.146 1106.15 410.082 1107.22 413.522C1108.29 416.96 1109.72 419.921 1111.9 421.832L1112.07 421.644ZM1097.28 383.91C1092.7 381 1088.72 374.957 1087.27 369.745C1086.54 367.137 1086.45 364.764 1087.21 363.1C1087.58 362.272 1088.17 361.619 1089 361.197C1089.83 360.773 1090.91 360.577 1092.28 360.679L1092.3 360.429C1090.9 360.325 1089.77 360.524 1088.89 360.974C1088 361.424 1087.38 362.122 1086.98 362.997C1086.18 364.74 1086.29 367.184 1087.02 369.812C1088.49 375.072 1092.51 381.172 1097.15 384.121L1097.28 383.91ZM1092.28 360.679C1095.06 360.891 1097.28 360.526 1098.9 359.674C1100.53 358.82 1101.55 357.481 1101.94 355.77C1102.73 352.361 1101.01 347.506 1096.7 342.063L1096.51 342.218C1100.8 347.647 1102.46 352.421 1101.7 355.714C1101.32 357.353 1100.35 358.632 1098.78 359.452C1097.21 360.275 1095.05 360.64 1092.3 360.429L1092.28 360.679ZM1096.7 342.063C1094.53 339.317 1090.93 337.002 1086.76 334.827C1082.59 332.653 1077.81 330.605 1073.29 328.409C1068.75 326.209 1064.46 323.857 1061.23 321.065C1057.99 318.274 1055.82 315.053 1055.51 311.115L1055.26 311.134C1055.58 315.162 1057.8 318.439 1061.06 321.255C1064.33 324.069 1068.64 326.433 1073.18 328.634C1077.72 330.838 1082.48 332.875 1086.65 335.049C1090.81 337.222 1094.37 339.516 1096.51 342.218L1096.7 342.063ZM1055.51 311.115C1055.36 309.094 1054.34 306.742 1052.64 304.165C1050.93 301.586 1048.55 298.77 1045.64 295.82C1039.83 289.919 1031.95 283.47 1023.34 277.285C1006.11 264.917 985.962 253.592 973.642 249.821L973.569 250.06C985.85 253.819 1005.98 265.126 1023.19 277.488C1031.79 283.668 1039.67 290.108 1045.46 295.995C1048.36 298.939 1050.74 301.742 1052.43 304.303C1054.12 306.866 1055.11 309.175 1055.26 311.134L1055.51 311.115ZM973.641 249.821C969.279 248.504 964.025 246.303 958.287 243.677L958.183 243.904C963.923 246.532 969.189 248.738 973.569 250.06L973.641 249.821ZM958.11 243.791V422.634H958.36V243.791H958.11ZM958.151 422.726C963.886 427.945 970.984 432.151 980.359 432.746L980.374 432.497C971.073 431.906 964.027 427.735 958.319 422.542L958.151 422.726ZM980.359 432.746C987.137 433.165 991.813 432.167 995.087 430.423C998.364 428.678 1000.23 426.192 1001.39 423.658C1002.55 421.129 1003.01 418.544 1003.49 416.615C1003.73 415.645 1003.97 414.849 1004.3 414.297C1004.62 413.752 1005.02 413.462 1005.57 413.462V413.212C1004.9 413.212 1004.44 413.576 1004.08 414.17C1003.73 414.757 1003.49 415.586 1003.25 416.555C1002.77 418.503 1002.31 421.052 1001.16 423.553C1000.02 426.049 998.189 428.489 994.97 430.203C991.748 431.918 987.123 432.914 980.374 432.497L980.359 432.746ZM1005.57 413.462C1006.86 413.462 1007.94 412.693 1008.9 411.436C1009.87 410.179 1010.74 408.412 1011.62 406.369C1013.4 402.274 1015.24 397.054 1017.99 392.457L1017.78 392.329C1015.01 396.944 1013.16 402.197 1011.39 406.27C1010.51 408.311 1009.65 410.053 1008.7 411.284C1007.76 412.514 1006.75 413.212 1005.57 413.212V413.462ZM1017.99 392.457C1019.35 390.202 1021.85 388.959 1025.07 388.608C1028.3 388.257 1032.24 388.8 1036.46 390.103C1044.89 392.709 1054.41 398.342 1061.46 405.856L1061.65 405.685C1054.56 398.138 1045.01 392.483 1036.53 389.864C1032.29 388.555 1028.32 388.003 1025.05 388.36C1021.77 388.716 1019.19 389.983 1017.78 392.328L1017.99 392.457ZM1061.46 405.856C1064.99 409.622 1068.67 415.22 1072.44 421.442C1076.21 427.658 1080.08 434.503 1083.96 440.735C1087.84 446.969 1091.75 452.61 1095.61 456.431C1099.47 460.247 1103.32 462.282 1107.09 461.215L1107.02 460.975C1103.4 462.002 1099.64 460.058 1095.79 456.253C1091.95 452.454 1088.05 446.835 1084.17 440.603C1080.29 434.369 1076.44 427.542 1072.66 421.313C1068.88 415.091 1065.19 409.472 1061.65 405.685L1061.46 405.856ZM1107.09 461.215C1114.42 459.141 1121.92 462.051 1129.3 465.401C1132.99 467.072 1136.65 468.853 1140.23 470.16C1143.81 471.468 1147.32 472.308 1150.73 472.091L1150.71 471.842C1147.36 472.055 1143.88 471.228 1140.31 469.926C1136.74 468.623 1133.1 466.849 1129.4 465.173C1122.03 461.828 1114.45 458.872 1107.02 460.975L1107.09 461.215ZM1150.73 472.091C1154.13 471.89 1155.96 470.844 1156.67 469.294C1157.38 467.755 1156.96 465.777 1155.99 463.783C1155.02 461.781 1153.49 459.73 1151.94 458.021C1150.39 456.314 1148.8 454.938 1147.71 454.293L1147.58 454.508C1148.64 455.134 1150.21 456.49 1151.75 458.189C1153.3 459.888 1154.81 461.919 1155.76 463.892C1156.72 465.871 1157.11 467.758 1156.45 469.19C1155.79 470.612 1154.08 471.643 1150.71 471.842L1150.73 472.091ZM1182.57 305.253C1182.57 308.959 1180.16 311.862 1175.79 314.894C1171.42 317.926 1165.13 321.059 1157.42 325.239L1157.54 325.459C1165.23 321.286 1171.55 318.142 1175.93 315.1C1180.32 312.058 1182.82 309.089 1182.82 305.253H1182.57ZM1157.42 325.24C1153.61 327.321 1149.01 327.771 1144.23 327.455C1139.45 327.139 1134.49 326.059 1129.98 325.092C1125.47 324.127 1121.39 323.272 1118.37 323.422C1116.86 323.496 1115.6 323.823 1114.68 324.528C1113.76 325.238 1113.2 326.317 1113.07 327.857L1113.32 327.877C1113.44 326.391 1113.98 325.384 1114.83 324.727C1115.69 324.065 1116.89 323.745 1118.38 323.671C1121.36 323.524 1125.41 324.369 1129.93 325.337C1134.44 326.303 1139.41 327.387 1144.21 327.704C1149.02 328.022 1153.67 327.573 1157.54 325.459L1157.42 325.24ZM1113.07 327.858C1112.92 329.794 1113.95 332.08 1115.8 334.406C1117.66 336.738 1120.36 339.129 1123.6 341.282C1130.07 345.587 1138.7 348.948 1147.03 348.948V348.698C1138.76 348.698 1130.18 345.359 1123.74 341.074C1120.52 338.932 1117.84 336.557 1116 334.251C1114.16 331.94 1113.18 329.718 1113.32 327.877L1113.07 327.858ZM1147.03 348.948C1151.21 348.948 1155.99 347.526 1160.82 345.297C1165.64 343.066 1170.51 340.024 1174.86 336.773C1179.22 333.523 1183.05 330.061 1185.79 326.991C1187.17 325.456 1188.27 324.017 1189.03 322.748C1189.79 321.484 1190.22 320.374 1190.22 319.502H1189.97C1189.97 320.304 1189.57 321.365 1188.82 322.62C1188.07 323.87 1186.97 325.297 1185.61 326.824C1182.87 329.88 1179.05 333.33 1174.72 336.573C1170.38 339.816 1165.52 342.848 1160.71 345.07C1155.9 347.292 1151.16 348.698 1147.03 348.698V348.948ZM1190.22 319.502C1190.22 317.856 1190.86 315.887 1191.77 313.741C1192.69 311.593 1193.85 309.302 1194.89 306.987C1195.93 304.681 1196.84 302.364 1197.22 300.201C1197.59 298.037 1197.44 296.012 1196.34 294.302L1196.13 294.437C1197.18 296.075 1197.34 298.029 1196.97 300.158C1196.6 302.289 1195.7 304.582 1194.67 306.885C1193.63 309.179 1192.46 311.498 1191.54 313.643C1190.63 315.792 1189.97 317.801 1189.97 319.502H1190.22ZM1196.34 294.302C1195.24 292.591 1193.82 291.935 1192.29 292.056C1190.78 292.175 1189.2 293.058 1187.77 294.376C1184.9 297.011 1182.57 301.44 1182.57 305.253H1182.82C1182.82 301.525 1185.11 297.159 1187.94 294.56C1189.35 293.261 1190.88 292.418 1192.31 292.305C1193.73 292.192 1195.08 292.795 1196.13 294.437L1196.34 294.302ZM1203.69 273.332C1201.23 271.231 1198.85 269.286 1196.85 267.801C1195.85 267.058 1194.94 266.428 1194.17 265.951C1193.4 265.476 1192.75 265.145 1192.28 265.008C1192.04 264.94 1191.83 264.914 1191.65 264.955C1191.57 264.976 1191.49 265.015 1191.42 265.076C1191.36 265.138 1191.32 265.216 1191.29 265.305C1191.25 265.48 1191.27 265.706 1191.34 265.974C1191.41 266.246 1191.55 266.576 1191.74 266.969C1192.51 268.536 1194.28 271.161 1197.35 275.138L1197.55 274.985C1194.48 271.008 1192.72 268.401 1191.96 266.858C1191.78 266.473 1191.65 266.159 1191.58 265.908C1191.51 265.655 1191.5 265.481 1191.53 265.371C1191.55 265.318 1191.57 265.282 1191.6 265.257C1191.62 265.231 1191.66 265.211 1191.71 265.198C1191.82 265.172 1191.98 265.184 1192.21 265.248C1192.65 265.376 1193.27 265.69 1194.04 266.164C1194.8 266.636 1195.7 267.261 1196.7 268.001C1198.69 269.482 1201.07 271.422 1203.53 273.522L1203.69 273.332ZM1197.35 275.138C1203.49 283.091 1204.91 290.43 1205.69 295.467C1205.89 296.726 1206.05 297.846 1206.23 298.794C1206.41 299.741 1206.62 300.529 1206.92 301.121C1207.23 301.716 1207.63 302.124 1208.21 302.289C1208.78 302.452 1209.5 302.37 1210.41 302.042L1210.33 301.807C1209.43 302.127 1208.78 302.19 1208.28 302.048C1207.79 301.908 1207.43 301.562 1207.14 301.007C1206.86 300.449 1206.66 299.69 1206.47 298.747C1206.29 297.805 1206.14 296.693 1205.94 295.429C1205.15 290.376 1203.73 282.987 1197.55 274.985L1197.35 275.138ZM1210.41 302.042C1213.37 300.984 1215.05 299.175 1215.75 296.918C1216.44 294.668 1216.14 291.992 1215.18 289.201C1213.25 283.62 1208.62 277.525 1203.69 273.332L1203.53 273.522C1208.43 277.694 1213.03 283.754 1214.94 289.283C1215.9 292.047 1216.18 294.665 1215.51 296.844C1214.84 299.016 1213.22 300.771 1210.33 301.807L1210.41 302.042Z" fill="#868686"/>
</g>
<g filter="url(#filter1_d_18_193)">
<path fill-rule="evenodd" clip-rule="evenodd" d="M71.4901 196.337C70.2641 200.502 77.0252 217.269 81.3165 212.257C85.6344 207.208 75.3727 183.069 71.4901 196.337ZM272.587 247.437C272.587 239.883 256.719 243.551 261.517 254.156C266.439 265.015 272.587 254.967 272.587 247.437ZM41.3636 124.27C40.1198 132.647 46.881 156.92 54.273 146.896C61.665 136.836 42.5542 116.038 41.3636 124.27ZM505.649 267.556C514.872 268.379 513.646 286.816 511.798 297.7C509.941 308.595 506.218 334.466 514.259 330.362C524.085 325.338 530.242 308.595 524.707 302.736C519.163 296.877 519.794 259.989 522.246 250.801C524.707 241.552 541.321 248.271 535.777 262.519C530.242 276.78 546.226 275.049 546.226 291.017C546.226 306.913 555.448 298.559 565.292 294.371C575.145 290.182 573.306 282.603 566.536 272.568C559.766 262.519 571.458 248.271 562.244 239.881C553.013 231.528 546.856 218.95 555.457 216.432C564.084 213.913 589.893 193.793 586.828 185.428C583.754 177.026 547.469 187.098 544.386 202.171C541.33 217.243 515.503 200.476 518.577 174.532C521.66 148.553 572.684 144.364 587.441 153.577C602.207 162.814 618.191 138.492 623.717 124.256C629.261 109.983 612.052 126.774 601.586 135.986C591.137 145.223 563.471 135.139 549.317 128.444C535.173 121.762 535.795 140.175 524.103 142.681C512.42 145.223 514.881 180.404 509.345 184.592C503.801 188.805 503.801 214.761 492.749 239.07C481.661 263.343 496.418 266.708 505.649 267.556ZM224.627 289.323C224.005 277.604 227.692 265.873 227.692 259.99C227.692 254.155 230.766 251.637 236.292 253.295C241.836 254.966 241.241 237.364 236.914 235.693C232.614 234.046 230.162 213.079 219.687 213.079C209.247 213.079 211.087 224.797 217.253 225.657C223.41 226.48 227.07 233.199 225.24 239.058C223.392 244.918 220.949 233.199 212.33 234.046C203.703 234.858 209.247 219.761 199.412 218.938C189.577 218.103 191.434 193.794 180.95 193.794C170.493 193.794 169.898 182.075 176.659 173.71C183.411 165.308 166.202 157.766 166.202 147.73C166.202 137.646 155.14 143.541 155.14 135.14C155.14 126.786 150.227 130.975 144.674 120.903C139.157 110.855 136.687 120.067 131.765 112.55C126.86 104.995 120.09 100.807 115.781 103.313C111.481 105.855 101.628 92.4171 97.941 79.0157C95.018 68.326 66.5872 50.5179 62.8823 36.2812C59.2041 22.0444 49.3599 16.1608 32.7635 17.0082C16.167 17.8193 9.61015 -5.14594 5.68315 6.11274C0.778843 20.3858 23.5323 52.2007 33.9895 60.5902C44.4379 68.9434 49.9641 99.1118 62.2693 100.807C74.5922 102.477 75.7917 155.26 85.0228 157.766C94.2539 160.308 113.96 201.36 117.025 223.127C120.099 244.93 140.374 255.825 147.162 271.745C153.914 287.652 180.968 309.467 184.664 316.15C188.342 322.845 192.047 337.929 195.139 330.375C198.213 322.845 211.113 330.375 217.27 331.234C223.401 332.094 225.231 301.066 224.627 289.323ZM694.446 155.259C707.968 156.954 701.802 146.035 701.802 134.316C701.802 122.597 689.524 132.645 689.524 126.786C689.524 120.914 685.224 97.4649 675.379 115.878C665.535 134.316 678.542 179.871 686.432 177.91C693.229 176.215 680.906 153.577 694.446 155.259ZM644.016 259.99C646.477 273.415 664.309 280.921 669.24 269.227C674.144 257.472 641.173 244.458 644.016 259.99ZM595.434 401.631C578.838 398.314 567.768 415.045 551.153 406.643C534.557 398.314 509.716 406.812 512.417 414.185C514.886 420.904 529.635 421.739 546.24 422.575C562.846 423.386 577.603 410.808 588.673 409.996C599.735 409.161 612.049 404.984 595.434 401.631ZM727.028 248.282C711.036 241.563 683.751 247.301 686.443 258.33C688.895 268.39 701.804 264.201 714.749 264.201C727.659 264.201 734.411 276.779 741.19 276.779C747.951 276.779 743.038 254.964 727.028 248.282ZM402.96 392.406C402.356 382.346 378.341 391.571 366.676 384.876C355.001 378.146 379.585 372.31 387.581 365.567C395.568 358.861 382.659 356.367 362.989 364.768C343.282 373.134 320.556 346.331 319.934 358.037C319.33 369.78 284.253 353.013 275.662 344.648C267.052 336.283 233.842 325.351 227.063 341.282C220.31 357.238 214.464 342.953 217.245 358.049C219.084 368.11 227.063 362.25 232.607 362.25C238.142 362.25 235.681 376.511 243.659 378.158C251.664 379.865 278.123 389.913 280.575 382.358C283.027 374.841 307.637 382.358 319.934 395.772C332.23 409.161 360.51 410.009 371.589 407.503C382.65 404.997 394.955 417.551 399.256 409.173C403.573 400.82 411.552 422.587 423.866 410.009C436.162 397.455 403.582 402.455 402.96 392.406ZM886.92 209.7C877.706 210.56 876.463 232.351 868.475 232.351C860.488 232.351 849.409 254.965 834.652 261.696C819.885 268.391 819.272 203.889 812.502 191.311C805.741 178.733 768.861 168.685 765.174 182.909C761.478 197.183 748.657 189.628 747.316 201.359C746.099 212.255 750.399 208.901 758.386 208.901C766.364 208.901 766.364 217.254 770.069 228.162C773.765 239.07 795.906 231.528 803.28 230.692C810.654 229.857 811.88 244.082 801.432 239.07C790.984 234.058 790.984 245.752 783.601 243.258C776.226 240.728 766.364 241.563 771.286 247.447C776.226 253.306 784.187 259.166 784.187 272.579C784.187 285.981 798.358 283.475 798.358 272.579C798.358 261.708 805.732 275.921 819.876 280.933C834.03 285.981 824.194 293.511 838.33 294.37C852.465 295.218 884.441 309.467 896.737 321.996C909.069 334.575 900.424 342.952 908.429 354.707C916.417 366.414 918.869 379.839 907.799 379.839C896.737 379.839 885.063 394.899 888.128 402.441C891.202 409.984 927.505 399.088 936.087 399.088C941.738 399.088 947.406 412.744 958.237 422.635V243.791C931.636 231.576 894.507 209.022 886.92 209.7ZM620.703 422.113C618.81 423.857 616.607 425.188 613.951 426.011C613.124 429.135 612.307 432.609 610.885 434.11C609.162 435.951 606.194 432.258 604.089 429.002C592.201 435.733 585.946 455.102 594.2 461.107C602.134 466.87 613.693 451.555 620.303 440.769C621.378 439.001 622.329 437.379 623.102 435.975C623.555 435.152 624.292 434.292 625.181 433.42C625.785 432.779 626.478 432.161 627.251 431.556C625.332 427.9 622.871 424.304 620.703 422.113ZM449.711 206.396C460.772 197.171 463.224 179.545 461.99 162.814C460.772 146.035 489.043 145.224 493.361 138.493C497.67 131.798 487.195 120.903 479.208 115.867C471.212 110.855 477.964 99.9593 472.438 93.2646C466.903 86.5821 457.689 68.9435 465.685 68.1445C473.664 67.2849 460.133 52.2007 466.903 47.1888C467.818 46.4988 468.875 45.7845 469.986 45.046C465.943 42.31 462.416 40.4699 460.141 40.4699C450.324 40.4699 426.949 37.1286 428.157 58.8833C429.41 80.6864 414.643 72.2848 415.861 84.0398C417.096 95.7827 408.477 95.7827 409.712 110.855C410.965 125.951 403.591 119.232 391.268 127.634C378.972 135.987 383.894 122.586 371.597 122.586C359.301 122.586 358.066 130.975 350.683 134.316C343.291 137.646 328.551 132.646 323.629 137.646C318.716 142.682 311.333 125.951 306.411 125.951C303.906 125.951 301.729 116.775 300.183 107.792C299.303 107.574 298.504 107.429 297.802 107.501C289.823 108.361 276.576 137.125 284.271 146.895C293.502 158.625 291.049 177.039 295.332 186.276C299.65 195.501 313.208 197.147 313.208 214.774C313.208 232.364 324.864 260.002 332.869 252.472C340.857 244.942 347.005 255.838 349.466 263.343C351.927 270.898 370.984 257.484 377.15 259.155C383.29 260.849 402.338 265.886 403.6 275.922C404.817 285.982 422.035 275.062 433.719 269.227C445.393 263.343 438.623 215.573 449.711 206.396ZM495.811 441C499.498 448.542 509.946 448.542 514.264 453.578C518.573 458.59 533.944 469.485 533.944 455.261C533.944 441 491.715 432.61 495.811 441ZM465.054 399.938C462.619 407.492 452.144 409.163 445.996 403.279C439.848 397.456 432.225 411.233 436.161 418.363C438.009 421.729 450.918 435.13 466.289 425.082C481.677 415.046 492.116 424.235 495.812 413.351C499.499 402.456 467.524 392.408 465.054 399.938Z" fill="#06A371"/>
<path d="M71.4901 196.337L71.61 196.372L71.6101 196.372L71.4901 196.337ZM81.3165 212.257L81.4115 212.338L81.4115 212.338L81.3165 212.257ZM261.517 254.156L261.403 254.207L261.403 254.207L261.517 254.156ZM41.3636 124.27L41.4873 124.288L41.4874 124.288L41.3636 124.27ZM54.273 146.896L54.3736 146.97L54.3737 146.97L54.273 146.896ZM505.649 267.556L505.638 267.68L505.638 267.68L505.649 267.556ZM511.798 297.7L511.921 297.721V297.721L511.798 297.7ZM514.259 330.362L514.315 330.473L514.316 330.473L514.259 330.362ZM524.707 302.736L524.798 302.65L524.798 302.65L524.707 302.736ZM522.246 250.801L522.367 250.833V250.833L522.246 250.801ZM535.777 262.519L535.661 262.474L535.661 262.474L535.777 262.519ZM565.292 294.371L565.243 294.256L565.243 294.256L565.292 294.371ZM566.536 272.568L566.432 272.637L566.432 272.637L566.536 272.568ZM562.244 239.881L562.329 239.789L562.328 239.788L562.244 239.881ZM555.457 216.432L555.422 216.312L555.422 216.312L555.457 216.432ZM586.828 185.428L586.711 185.471V185.471L586.828 185.428ZM544.386 202.171L544.264 202.145L544.264 202.146L544.386 202.171ZM518.577 174.532L518.452 174.518V174.518L518.577 174.532ZM587.441 153.577L587.508 153.471L587.507 153.471L587.441 153.577ZM623.717 124.256L623.601 124.21V124.21L623.717 124.256ZM601.586 135.986L601.503 135.893L601.503 135.893L601.586 135.986ZM549.317 128.444L549.371 128.331L549.371 128.331L549.317 128.444ZM524.103 142.681L524.077 142.559L524.076 142.559L524.103 142.681ZM509.345 184.592L509.27 184.493L509.27 184.493L509.345 184.592ZM492.749 239.07L492.863 239.122L492.863 239.122L492.749 239.07ZM224.627 289.323L224.752 289.316L224.752 289.316L224.627 289.323ZM236.292 253.295L236.328 253.175L236.328 253.175L236.292 253.295ZM236.914 235.693L236.959 235.576L236.959 235.576L236.914 235.693ZM217.253 225.657L217.235 225.781L217.236 225.781L217.253 225.657ZM225.24 239.058L225.359 239.096L225.359 239.096L225.24 239.058ZM212.33 234.046L212.342 234.171L212.343 234.171L212.33 234.046ZM199.412 218.938L199.402 219.063L199.402 219.063L199.412 218.938ZM176.659 173.71L176.756 173.788L176.756 173.788L176.659 173.71ZM144.674 120.903L144.565 120.963L144.565 120.963L144.674 120.903ZM131.765 112.55L131.66 112.618L131.66 112.618L131.765 112.55ZM115.781 103.313L115.718 103.205L115.718 103.205L115.781 103.313ZM97.941 79.0157L97.8204 79.0487L97.8205 79.0489L97.941 79.0157ZM62.8823 36.2812L62.7613 36.3124L62.7613 36.3126L62.8823 36.2812ZM32.7635 17.0082L32.7696 17.1331L32.7698 17.1331L32.7635 17.0082ZM5.68315 6.11274L5.56512 6.07157L5.56494 6.07212L5.68315 6.11274ZM33.9895 60.5902L33.9113 60.6877L33.9115 60.6878L33.9895 60.5902ZM62.2693 100.807L62.2522 100.931L62.2525 100.931L62.2693 100.807ZM85.0228 157.766L85.056 157.645L85.0555 157.645L85.0228 157.766ZM117.025 223.127L116.901 223.144L116.901 223.144L117.025 223.127ZM147.162 271.745L147.277 271.696L147.277 271.696L147.162 271.745ZM184.664 316.15L184.773 316.09L184.773 316.09L184.664 316.15ZM195.139 330.375L195.254 330.422L195.254 330.422L195.139 330.375ZM217.27 331.234L217.288 331.11L217.288 331.11L217.27 331.234ZM694.446 155.259L694.461 155.135L694.461 155.135L694.446 155.259ZM675.379 115.878L675.269 115.819V115.819L675.379 115.878ZM686.432 177.91L686.462 178.031L686.462 178.031L686.432 177.91ZM644.016 259.99L643.893 260.012V260.012L644.016 259.99ZM669.24 269.227L669.355 269.275L669.355 269.275L669.24 269.227ZM595.434 401.631L595.459 401.509L595.459 401.509L595.434 401.631ZM551.153 406.643L551.21 406.531L551.21 406.531L551.153 406.643ZM512.417 414.185L512.299 414.228L512.299 414.228L512.417 414.185ZM546.24 422.575L546.234 422.699L546.234 422.7L546.24 422.575ZM588.673 409.996L588.682 410.121L588.683 410.121L588.673 409.996ZM727.028 248.282L726.979 248.397L726.98 248.397L727.028 248.282ZM686.443 258.33L686.564 258.3V258.3L686.443 258.33ZM402.96 392.406L402.836 392.414V392.414L402.96 392.406ZM366.676 384.876L366.613 384.985L366.613 384.985L366.676 384.876ZM387.581 365.567L387.501 365.472L387.501 365.472L387.581 365.567ZM362.989 364.768L363.037 364.883L363.038 364.883L362.989 364.768ZM319.934 358.037L319.809 358.031V358.031L319.934 358.037ZM275.662 344.648L275.749 344.558L275.749 344.558L275.662 344.648ZM227.063 341.282L226.948 341.233L226.948 341.234L227.063 341.282ZM217.245 358.049L217.368 358.027L217.368 358.027L217.245 358.049ZM243.659 378.158L243.685 378.035L243.685 378.035L243.659 378.158ZM280.575 382.358L280.456 382.32L280.456 382.32L280.575 382.358ZM319.934 395.772L319.842 395.856L319.842 395.857L319.934 395.772ZM371.589 407.503L371.616 407.625H371.616L371.589 407.503ZM399.256 409.173L399.145 409.116L399.144 409.116L399.256 409.173ZM423.866 410.009L423.777 409.921L423.777 409.921L423.866 410.009ZM886.92 209.7L886.909 209.576L886.908 209.576L886.92 209.7ZM834.652 261.696L834.703 261.81L834.703 261.81L834.652 261.696ZM812.502 191.311L812.392 191.37V191.37L812.502 191.311ZM765.174 182.909L765.053 182.878V182.878L765.174 182.909ZM747.316 201.359L747.192 201.345V201.345L747.316 201.359ZM770.069 228.162L770.188 228.122V228.122L770.069 228.162ZM783.601 243.258L783.56 243.377L783.561 243.377L783.601 243.258ZM771.286 247.447L771.191 247.527L771.191 247.528L771.286 247.447ZM819.876 280.933L819.918 280.815L819.918 280.815L819.876 280.933ZM838.33 294.37L838.322 294.495L838.322 294.495L838.33 294.37ZM896.737 321.996L896.827 321.909L896.826 321.909L896.737 321.996ZM908.429 354.707L908.326 354.778L908.326 354.778L908.429 354.707ZM888.128 402.441L888.012 402.489L888.012 402.489L888.128 402.441ZM958.237 422.635L958.152 422.727L958.362 422.918V422.635H958.237ZM958.237 243.791H958.362V243.711L958.289 243.677L958.237 243.791ZM620.703 422.113L620.792 422.025L620.707 421.94L620.618 422.021L620.703 422.113ZM613.951 426.011L613.914 425.892L613.847 425.913L613.83 425.979L613.951 426.011ZM610.885 434.11L610.795 434.024L610.794 434.025L610.885 434.11ZM604.089 429.002L604.194 428.934L604.13 428.835L604.027 428.893L604.089 429.002ZM594.2 461.107L594.127 461.208L594.127 461.208L594.2 461.107ZM620.303 440.769L620.41 440.834L620.41 440.834L620.303 440.769ZM623.102 435.975L623.211 436.035L623.102 435.975ZM625.181 433.42L625.268 433.51L625.272 433.506L625.181 433.42ZM627.251 431.556L627.328 431.654L627.41 431.59L627.362 431.498L627.251 431.556ZM449.711 206.396L449.791 206.492L449.791 206.492L449.711 206.396ZM461.99 162.814L461.865 162.823V162.823L461.99 162.814ZM493.361 138.493L493.256 138.425L493.256 138.426L493.361 138.493ZM479.208 115.867L479.275 115.761L479.274 115.761L479.208 115.867ZM472.438 93.2646L472.534 93.1851L472.534 93.1849L472.438 93.2646ZM465.685 68.1445L465.698 68.2689L465.699 68.2688L465.685 68.1445ZM466.903 47.1888L466.977 47.2893L466.978 47.2886L466.903 47.1888ZM469.986 45.046L470.055 45.1501L470.21 45.0469L470.056 44.9425L469.986 45.046ZM428.157 58.8833L428.032 58.8902V58.8905L428.157 58.8833ZM415.861 84.0398L415.736 84.0527V84.0529L415.861 84.0398ZM409.712 110.855L409.588 110.865V110.865L409.712 110.855ZM391.268 127.634L391.338 127.737L391.338 127.737L391.268 127.634ZM350.683 134.316L350.734 134.43L350.735 134.43L350.683 134.316ZM323.629 137.646L323.54 137.558L323.54 137.558L323.629 137.646ZM300.183 107.792L300.306 107.771L300.292 107.69L300.213 107.671L300.183 107.792ZM297.802 107.501L297.789 107.377L297.788 107.377L297.802 107.501ZM284.271 146.895L284.369 146.817L284.369 146.817L284.271 146.895ZM295.332 186.276L295.218 186.328L295.219 186.329L295.332 186.276ZM332.869 252.472L332.955 252.563L332.955 252.563L332.869 252.472ZM349.466 263.343L349.585 263.305L349.585 263.304L349.466 263.343ZM377.15 259.155L377.184 259.034L377.183 259.034L377.15 259.155ZM403.6 275.922L403.724 275.907L403.724 275.906L403.6 275.922ZM433.719 269.227L433.775 269.339L433.775 269.338L433.719 269.227ZM495.811 441L495.698 441.055L495.698 441.055L495.811 441ZM514.264 453.578L514.169 453.659L514.169 453.66L514.264 453.578ZM465.054 399.938L464.935 399.899L464.935 399.899L465.054 399.938ZM445.996 403.279L446.083 403.189L446.082 403.188L445.996 403.279ZM436.161 418.363L436.27 418.303L436.27 418.303L436.161 418.363ZM466.289 425.082L466.22 424.977L466.22 424.978L466.289 425.082ZM495.812 413.351L495.931 413.392L495.931 413.391L495.812 413.351ZM71.3702 196.302C71.2104 196.845 71.1834 197.58 71.2598 198.434C71.3365 199.289 71.5183 200.273 71.7836 201.317C72.3144 203.405 73.1819 205.743 74.2228 207.795C75.2619 209.842 76.4814 211.619 77.7224 212.568C78.3439 213.044 78.9826 213.321 79.6147 213.307C80.2514 213.293 80.8577 212.985 81.4115 212.338L81.2216 212.175C80.7025 212.782 80.1588 213.045 79.6092 213.057C79.055 213.07 78.471 212.827 77.8743 212.37C76.679 211.455 75.4802 209.72 74.4458 207.681C73.4133 205.647 72.5522 203.326 72.0259 201.255C71.7628 200.22 71.584 199.25 71.5088 198.411C71.4334 197.57 71.4633 196.871 71.61 196.372L71.3702 196.302ZM81.4115 212.338C81.9742 211.68 82.2911 210.722 82.4175 209.593C82.5441 208.461 82.4811 207.145 82.2724 205.755C81.8548 202.976 80.8514 199.887 79.5902 197.372C78.9596 196.115 78.2628 194.997 77.5399 194.132C76.8189 193.27 76.0625 192.647 75.3099 192.398C74.5458 192.146 73.7957 192.283 73.119 192.913C72.4509 193.536 71.8579 194.635 71.3702 196.302L71.6101 196.372C72.093 194.722 72.67 193.673 73.2894 193.096C73.9001 192.527 74.555 192.412 75.2314 192.636C75.9194 192.863 76.6392 193.444 77.3481 194.292C78.055 195.138 78.7419 196.238 79.3668 197.484C80.6167 199.977 81.6117 203.04 82.0251 205.792C82.2319 207.168 82.2925 208.462 82.169 209.565C82.0453 210.67 81.7383 211.571 81.2215 212.175L81.4115 212.338ZM272.712 247.437C272.712 246.47 272.458 245.675 272.017 245.05C271.576 244.425 270.954 243.976 270.228 243.692C268.78 243.125 266.913 243.212 265.208 243.87C263.501 244.528 261.939 245.764 261.11 247.516C260.279 249.271 260.191 251.528 261.403 254.207L261.631 254.104C260.444 251.481 260.541 249.302 261.336 247.623C262.132 245.94 263.638 244.743 265.298 244.103C266.959 243.462 268.76 243.386 270.137 243.925C270.824 244.194 271.404 244.615 271.812 245.194C272.22 245.772 272.462 246.515 272.462 247.437H272.712ZM261.403 254.207C262.638 256.931 263.963 258.378 265.28 258.863C266.61 259.353 267.889 258.849 268.985 257.782C270.079 256.716 271.01 255.074 271.667 253.232C272.325 251.389 272.712 249.335 272.712 247.437H272.462C272.462 249.303 272.081 251.329 271.432 253.148C270.782 254.969 269.868 256.573 268.811 257.603C267.754 258.631 266.573 259.073 265.366 258.629C264.146 258.179 262.857 256.81 261.631 254.104L261.403 254.207ZM41.24 124.251C40.9262 126.365 41.118 129.468 41.6933 132.77C42.2691 136.075 43.2309 139.59 44.4646 142.532C45.0815 144.003 45.7674 145.332 46.5087 146.421C47.2492 147.509 48.0496 148.363 48.898 148.875C49.7499 149.388 50.6525 149.557 51.5824 149.265C52.5072 148.974 53.4411 148.235 54.3736 146.97L54.1724 146.822C53.2569 148.063 52.3625 148.758 51.5075 149.026C50.6577 149.293 49.829 149.144 49.027 148.661C48.2215 148.175 47.4453 147.353 46.7153 146.281C45.9861 145.209 45.3077 143.896 44.6951 142.435C43.47 139.514 42.5128 136.017 41.9396 132.728C41.3661 129.436 41.1792 126.363 41.4873 124.288L41.24 124.251ZM54.3737 146.97C56.2514 144.415 56.439 141.186 55.6634 137.93C54.8878 134.673 53.1456 131.373 51.1374 128.649C49.1307 125.928 46.8476 123.768 44.9797 122.806C44.0489 122.327 43.1955 122.132 42.5252 122.347C41.8401 122.567 41.3925 123.197 41.2399 124.252L41.4874 124.288C41.6324 123.285 42.0424 122.764 42.6015 122.585C43.1753 122.401 43.9525 122.559 44.8653 123.029C46.6845 123.965 48.9403 126.091 50.9362 128.798C52.9304 131.502 54.6544 134.773 55.4202 137.988C56.1862 141.204 55.9906 144.347 54.1723 146.822L54.3737 146.97ZM505.638 267.68C507.894 267.881 509.514 269.157 510.652 271.145C511.793 273.137 512.444 275.839 512.751 278.868C513.364 284.924 512.598 292.241 511.674 297.679L511.921 297.721C512.846 292.275 513.616 284.932 512.999 278.843C512.691 275.799 512.035 273.057 510.869 271.02C509.701 268.979 508.016 267.641 505.661 267.431L505.638 267.68ZM511.674 297.679C510.746 303.127 509.35 312.326 509.192 319.653C509.113 323.312 509.342 326.523 510.104 328.566C510.485 329.587 511.007 330.339 511.712 330.695C512.424 331.055 513.289 330.997 514.315 330.473L514.202 330.251C513.218 330.753 512.441 330.784 511.825 330.472C511.202 330.157 510.71 329.476 510.338 328.478C509.594 326.484 509.363 323.316 509.442 319.658C509.599 312.352 510.992 303.168 511.921 297.721L511.674 297.679ZM514.316 330.473C519.265 327.943 523.278 322.471 525.36 316.906C526.402 314.122 526.964 311.307 526.916 308.816C526.868 306.325 526.21 304.145 524.798 302.65L524.616 302.822C525.971 304.256 526.619 306.366 526.666 308.82C526.714 311.273 526.16 314.056 525.126 316.818C523.058 322.346 519.078 327.757 514.202 330.251L514.316 330.473ZM524.798 302.65C524.124 301.938 523.535 300.743 523.028 299.161C522.522 297.582 522.103 295.632 521.762 293.422C521.081 289.004 520.717 283.563 520.603 278.014C520.489 272.466 520.624 266.814 520.941 261.976C521.258 257.135 521.757 253.117 522.367 250.833L522.125 250.769C521.509 253.078 521.009 257.117 520.692 261.96C520.374 266.805 520.238 272.464 520.353 278.019C520.467 283.574 520.832 289.027 521.515 293.46C521.857 295.677 522.279 297.641 522.79 299.237C523.3 300.83 523.904 302.069 524.616 302.822L524.798 302.65ZM522.367 250.833C522.971 248.564 524.436 247.284 526.208 246.847C527.986 246.409 530.087 246.816 531.948 247.955C535.663 250.227 538.411 255.404 535.661 262.474L535.894 262.565C538.687 255.386 535.9 250.079 532.079 247.742C530.172 246.576 528.004 246.147 526.148 246.605C524.286 247.064 522.752 248.413 522.125 250.769L522.367 250.833ZM535.661 262.474C534.27 266.058 534.224 268.655 534.956 270.784C535.687 272.906 537.185 274.544 538.837 276.216C540.493 277.893 542.305 279.608 543.708 281.899C545.108 284.185 546.101 287.048 546.101 291.017H546.351C546.351 287.002 545.345 284.094 543.921 281.768C542.5 279.447 540.662 277.709 539.015 276.04C537.362 274.367 535.903 272.765 535.193 270.702C534.485 268.645 534.517 266.111 535.894 262.565L535.661 262.474ZM546.101 291.017C546.101 294.996 546.676 297.489 547.72 298.91C548.244 299.624 548.886 300.067 549.627 300.288C550.365 300.508 551.193 300.507 552.089 300.349C553.877 300.032 555.968 299.084 558.216 297.961C560.469 296.835 562.884 295.531 565.341 294.486L565.243 294.256C562.777 295.305 560.348 296.616 558.104 297.737C555.853 298.862 553.793 299.793 552.045 300.102C551.173 300.256 550.387 300.254 549.698 300.048C549.012 299.843 548.415 299.434 547.921 298.762C546.928 297.41 546.351 294.987 546.351 291.017H546.101ZM565.341 294.486C567.817 293.433 569.57 292.163 570.695 290.684C571.821 289.203 572.31 287.521 572.272 285.659C572.197 281.947 570.025 277.517 566.639 272.498L566.432 272.637C569.816 277.654 571.949 282.031 572.023 285.664C572.059 287.475 571.584 289.101 570.496 290.532C569.405 291.966 567.693 293.214 565.243 294.256L565.341 294.486ZM566.639 272.498C564.965 270.013 564.43 267.265 564.43 264.401C564.43 261.533 564.966 258.56 565.43 255.622C566.354 249.764 566.991 244.034 562.329 239.789L562.16 239.973C566.711 244.117 566.109 249.707 565.183 255.583C564.721 258.511 564.18 261.509 564.18 264.401C564.18 267.297 564.721 270.098 566.432 272.637L566.639 272.498ZM562.328 239.788C557.723 235.621 553.891 230.404 552.281 225.926C551.477 223.686 551.233 221.646 551.711 220.018C552.185 218.4 553.377 217.171 555.492 216.551L555.422 216.312C553.236 216.951 551.972 218.238 551.471 219.948C550.972 221.648 551.233 223.747 552.046 226.01C553.673 230.539 557.535 235.788 562.161 239.974L562.328 239.788ZM555.492 216.551C557.667 215.916 560.911 214.178 564.498 211.805C568.088 209.431 572.032 206.415 575.61 203.216C579.188 200.017 582.404 196.631 584.536 193.518C585.602 191.961 586.399 190.468 586.833 189.096C587.267 187.725 587.342 186.465 586.946 185.385L586.711 185.471C587.081 186.481 587.019 187.681 586.595 189.021C586.171 190.361 585.387 191.831 584.33 193.377C582.214 196.467 579.014 199.837 575.444 203.029C571.874 206.22 567.94 209.229 564.36 211.597C560.777 213.967 557.559 215.688 555.422 216.312L555.492 216.551ZM586.946 185.385C586.545 184.289 585.606 183.507 584.293 183C582.981 182.493 581.283 182.256 579.333 182.255C575.434 182.253 570.5 183.199 565.57 184.878C560.641 186.557 555.707 188.972 551.811 191.915C547.917 194.855 545.044 198.334 544.264 202.145L544.509 202.196C545.271 198.471 548.089 195.039 551.962 192.114C555.832 189.192 560.74 186.788 565.651 185.115C570.563 183.442 575.469 182.503 579.333 182.505C581.266 182.506 582.931 182.742 584.203 183.233C585.475 183.725 586.343 184.466 586.711 185.471L586.946 185.385ZM544.264 202.146C543.886 204.011 543.158 205.372 542.188 206.283C541.22 207.194 540.001 207.664 538.626 207.734C535.868 207.874 532.479 206.402 529.264 203.637C522.839 198.112 517.169 187.474 518.701 174.547L518.452 174.518C516.91 187.534 522.617 198.251 529.101 203.827C532.34 206.613 535.79 208.128 538.638 207.984C540.066 207.911 541.343 207.421 542.359 206.465C543.375 205.51 544.123 204.098 544.509 202.195L544.264 202.146ZM518.701 174.547C519.466 168.096 523.207 162.992 528.635 159.104C534.064 155.215 541.174 152.549 548.657 150.98C556.138 149.41 563.984 148.939 570.88 149.436C577.779 149.932 583.711 151.395 587.375 153.683L587.507 153.471C583.793 151.151 577.812 149.684 570.898 149.186C563.979 148.688 556.11 149.161 548.605 150.735C541.102 152.309 533.956 154.985 528.489 158.901C523.021 162.817 519.228 167.979 518.452 174.518L518.701 174.547ZM587.375 153.683C591.101 156.013 594.907 156.227 598.601 155.013C602.289 153.8 605.86 151.166 609.134 147.806C615.681 141.086 621.066 131.43 623.834 124.301L623.601 124.21C620.842 131.318 615.472 140.941 608.955 147.632C605.696 150.977 602.157 153.58 598.523 154.775C594.893 155.968 591.165 155.758 587.508 153.471L587.375 153.683ZM623.834 124.301C624.528 122.514 624.872 121.199 624.912 120.289C624.932 119.834 624.877 119.469 624.743 119.194C624.605 118.913 624.388 118.734 624.105 118.651C623.826 118.571 623.493 118.586 623.12 118.675C622.746 118.763 622.321 118.927 621.856 119.153C620.925 119.607 619.813 120.32 618.582 121.213C613.658 124.783 606.73 131.292 601.503 135.893L601.668 136.08C606.907 131.468 613.817 124.976 618.729 121.415C619.956 120.525 621.053 119.822 621.965 119.378C622.421 119.156 622.827 119 623.177 118.918C623.529 118.835 623.814 118.828 624.035 118.892C624.25 118.954 624.411 119.086 624.518 119.304C624.627 119.526 624.682 119.845 624.662 120.278C624.624 121.146 624.292 122.429 623.601 124.21L623.834 124.301ZM601.503 135.893C598.92 138.176 595.263 139.273 590.994 139.521C586.725 139.77 581.858 139.168 576.868 138.068C566.888 135.867 556.443 131.676 549.371 128.331L549.264 128.557C556.345 131.907 566.81 136.106 576.814 138.312C581.816 139.415 586.708 140.021 591.008 139.771C595.307 139.521 599.027 138.415 601.668 136.08L601.503 135.893ZM549.371 128.331C545.814 126.651 543.164 126.539 541.009 127.381C538.861 128.22 537.23 129.999 535.691 132.042C534.144 134.095 532.696 136.406 530.894 138.375C529.098 140.338 526.966 141.94 524.077 142.559L524.129 142.803C527.086 142.17 529.261 140.53 531.078 138.544C532.89 136.564 534.362 134.221 535.89 132.192C537.425 130.154 539.021 128.426 541.1 127.614C543.172 126.804 545.748 126.896 549.264 128.557L549.371 128.331ZM524.076 142.559C521.091 143.209 519.033 145.937 517.531 149.667C516.026 153.402 515.064 158.181 514.295 163C513.525 167.827 512.951 172.685 512.221 176.611C511.856 178.573 511.454 180.293 510.972 181.651C510.488 183.015 509.931 183.993 509.27 184.493L509.421 184.692C510.144 184.145 510.721 183.107 511.207 181.735C511.696 180.358 512.101 178.623 512.466 176.657C513.197 172.73 513.775 167.848 514.542 163.039C515.31 158.222 516.269 153.467 517.762 149.76C519.258 146.047 521.273 143.425 524.129 142.803L524.076 142.559ZM509.27 184.493C508.554 185.037 507.937 185.924 507.381 187.092C506.824 188.262 506.324 189.724 505.847 191.43C504.893 194.841 504.027 199.246 502.99 204.27C500.916 214.324 498.155 226.878 492.635 239.018L492.863 239.122C498.395 226.953 501.161 214.375 503.235 204.32C504.273 199.29 505.137 194.897 506.088 191.497C506.563 189.797 507.059 188.351 507.607 187.2C508.155 186.047 508.751 185.201 509.421 184.692L509.27 184.493ZM492.635 239.018C487.085 251.168 487.979 258.141 491.485 262.179C493.234 264.193 495.62 265.461 498.142 266.279C500.663 267.098 503.327 267.468 505.638 267.68L505.661 267.431C503.357 267.22 500.714 266.851 498.219 266.042C495.723 265.232 493.383 263.983 491.674 262.015C488.266 258.091 487.325 251.244 492.863 239.122L492.635 239.018ZM224.752 289.316C224.441 283.471 225.206 277.619 226.049 272.488C226.471 269.928 226.913 267.535 227.249 265.427C227.585 263.316 227.817 261.471 227.817 259.99H227.567C227.567 261.45 227.338 263.278 227.002 265.388C226.666 267.5 226.226 269.875 225.803 272.448C224.958 277.583 224.19 283.456 224.502 289.33L224.752 289.316ZM227.817 259.99C227.817 257.089 228.581 255.048 229.997 253.93C231.411 252.815 233.513 252.591 236.256 253.415L236.328 253.175C233.546 252.34 231.347 252.547 229.842 253.734C228.34 254.92 227.567 257.055 227.567 259.99H227.817ZM236.256 253.415C236.982 253.633 237.617 253.538 238.156 253.192C238.689 252.85 239.117 252.269 239.451 251.536C240.117 250.072 240.428 247.955 240.43 245.747C240.431 243.537 240.123 241.219 239.541 239.346C239.25 238.409 238.89 237.58 238.462 236.929C238.034 236.279 237.534 235.798 236.959 235.576L236.869 235.809C237.377 236.005 237.841 236.44 238.253 237.066C238.664 237.691 239.016 238.498 239.303 239.42C239.876 241.265 240.181 243.557 240.18 245.747C240.178 247.939 239.869 250.015 239.223 251.433C238.9 252.142 238.499 252.675 238.021 252.982C237.548 253.285 236.989 253.375 236.328 253.175L236.256 253.415ZM236.959 235.576C236.458 235.384 235.967 234.903 235.472 234.178C234.979 233.456 234.493 232.51 233.995 231.413C233.497 230.317 232.989 229.076 232.451 227.767C231.914 226.458 231.346 225.081 230.73 223.717C229.499 220.99 228.07 218.304 226.287 216.298C224.502 214.29 222.353 212.954 219.687 212.954V213.204C222.258 213.204 224.344 214.489 226.1 216.464C227.857 218.44 229.273 221.099 230.502 223.82C231.116 225.18 231.682 226.552 232.22 227.862C232.757 229.17 233.267 230.415 233.768 231.517C234.268 232.617 234.761 233.579 235.266 234.319C235.769 235.056 236.296 235.59 236.87 235.81L236.959 235.576ZM219.687 212.954C217.054 212.954 215.178 213.693 213.95 214.831C212.723 215.97 212.156 217.495 212.118 219.042C212.042 222.124 214.072 225.34 217.235 225.781L217.27 225.533C214.267 225.115 212.294 222.041 212.368 219.049C212.404 217.559 212.949 216.101 214.12 215.015C215.291 213.929 217.101 213.204 219.687 213.204V212.954ZM217.236 225.781C223.305 226.592 226.931 233.225 225.12 239.021L225.359 239.096C227.209 233.173 223.514 226.368 217.269 225.533L217.236 225.781ZM225.121 239.021C224.891 239.75 224.658 240.18 224.423 240.399C224.308 240.506 224.195 240.559 224.083 240.575C223.969 240.592 223.844 240.572 223.703 240.513C223.416 240.392 223.088 240.121 222.704 239.736C222.322 239.353 221.898 238.873 221.416 238.347C219.497 236.256 216.693 233.492 212.318 233.922L212.343 234.171C216.586 233.754 219.313 236.425 221.232 238.516C221.709 239.036 222.14 239.524 222.527 239.912C222.912 240.298 223.27 240.602 223.607 240.743C223.777 240.815 223.949 240.847 224.119 240.823C224.289 240.798 224.447 240.717 224.593 240.582C224.879 240.317 225.127 239.832 225.359 239.096L225.121 239.021ZM212.319 233.922C211.258 234.022 210.425 233.876 209.757 233.551C209.088 233.227 208.575 232.718 208.161 232.076C207.328 230.784 206.909 228.972 206.446 227.075C205.986 225.191 205.483 223.231 204.471 221.691C203.453 220.142 201.921 219.023 199.423 218.813L199.402 219.063C201.821 219.265 203.284 220.341 204.262 221.829C205.247 223.326 205.741 225.243 206.203 227.135C206.662 229.014 207.089 230.876 207.951 232.211C208.384 232.883 208.929 233.427 209.647 233.776C210.365 234.125 211.246 234.274 212.342 234.171L212.319 233.922ZM199.423 218.813C197.024 218.61 195.326 216.977 193.961 214.595C192.596 212.211 191.582 209.108 190.543 206.013C189.506 202.925 188.444 199.845 186.98 197.538C185.514 195.227 183.631 193.669 180.95 193.669V193.919C183.511 193.919 185.327 195.399 186.769 197.672C188.213 199.949 189.267 202.998 190.306 206.092C191.342 209.179 192.364 212.309 193.744 214.719C195.125 217.13 196.882 218.849 199.402 219.063L199.423 218.813ZM180.95 193.669C178.36 193.669 176.393 192.943 174.999 191.737C173.605 190.531 172.773 188.834 172.471 186.87C171.867 182.937 173.392 177.951 176.756 173.788L176.561 173.631C173.165 177.834 171.607 182.889 172.224 186.908C172.533 188.919 173.388 190.674 174.835 191.926C176.283 193.179 178.312 193.919 180.95 193.919V193.669ZM176.756 173.788C177.612 172.724 178.092 171.668 178.271 170.614C178.451 169.56 178.329 168.517 177.992 167.479C177.32 165.408 175.787 163.347 174.059 161.253C172.324 159.152 170.392 157.015 168.889 154.772C167.387 152.531 166.327 150.203 166.327 147.73H166.077C166.077 150.275 167.167 152.653 168.681 154.911C170.194 157.168 172.142 159.323 173.866 161.412C175.596 163.508 177.099 165.536 177.755 167.556C178.081 168.563 178.196 169.566 178.025 170.572C177.853 171.578 177.394 172.595 176.561 173.631L176.756 173.788ZM166.327 147.73C166.327 145.184 165.627 143.626 164.56 142.6C163.499 141.58 162.088 141.102 160.707 140.684C159.314 140.263 157.959 139.903 156.944 139.134C155.943 138.374 155.265 137.207 155.265 135.14H155.015C155.015 137.273 155.72 138.519 156.793 139.333C157.852 140.136 159.262 140.508 160.635 140.923C162.019 141.342 163.374 141.807 164.387 142.78C165.393 143.747 166.077 145.233 166.077 147.73H166.327ZM155.265 135.14C155.265 133.041 154.957 131.711 154.394 130.745C153.83 129.778 153.02 129.19 152.058 128.561C151.093 127.931 149.969 127.256 148.737 126.11C147.506 124.966 146.166 123.35 144.784 120.842L144.565 120.963C145.959 123.492 147.315 125.129 148.567 126.293C149.818 127.457 150.963 128.145 151.921 128.771C152.881 129.398 153.646 129.959 154.178 130.87C154.709 131.783 155.015 133.062 155.015 135.14H155.265ZM144.784 120.843C143.4 118.323 142.198 116.993 141.087 116.309C139.97 115.623 138.959 115.598 137.989 115.653C137.015 115.707 136.104 115.836 135.123 115.495C134.149 115.157 133.091 114.348 131.869 112.481L131.66 112.618C132.899 114.511 133.996 115.369 135.041 115.731C136.081 116.092 137.055 115.955 138.003 115.902C138.955 115.849 139.904 115.875 140.956 116.522C142.014 117.173 143.19 118.459 144.565 120.963L144.784 120.843ZM131.87 112.482C129.41 108.693 126.478 105.741 123.613 104.051C120.751 102.362 117.93 101.919 115.718 103.205L115.844 103.421C117.942 102.201 120.66 102.598 123.486 104.266C126.31 105.932 129.215 108.852 131.66 112.618L131.87 112.482ZM115.718 103.205C114.711 103.8 113.348 103.477 111.77 102.371C110.2 101.27 108.459 99.4222 106.732 97.0691C103.279 92.3643 99.901 85.6683 98.0615 78.9825L97.8205 79.0489C99.6682 85.7645 103.06 92.4881 106.531 97.217C108.265 99.5807 110.025 101.453 111.626 102.576C113.22 103.693 114.702 104.096 115.845 103.42L115.718 103.205ZM98.0616 78.9827C97.322 76.2779 94.9768 73.1408 91.8428 69.746C88.705 66.347 84.7572 62.6701 80.7911 58.8881C76.8229 55.1041 72.8349 51.2136 69.6078 47.3808C66.379 43.5461 63.9223 39.7811 63.0033 36.2497L62.7613 36.3126C63.6948 39.8995 66.1813 43.6994 69.4166 47.5418C72.6535 51.3863 76.6507 55.2853 80.6186 59.069C84.5887 62.8549 88.5283 66.5241 91.6591 69.9155C94.7937 73.3111 97.0985 76.4086 97.8204 79.0487L98.0616 78.9827ZM63.0033 36.2499C61.1582 29.1082 57.7621 24.0476 52.7338 20.8823C47.7086 17.719 41.0695 16.459 32.7571 16.8834L32.7698 17.1331C41.0539 16.7101 47.6351 17.9681 52.6006 21.0939C57.5631 24.2177 60.9282 29.2174 62.7613 36.3124L63.0033 36.2499ZM32.7574 16.8834C24.521 17.2859 18.7691 11.7907 14.5609 7.55455C13.5114 6.49807 12.5559 5.51809 11.6849 4.73348C10.8156 3.95035 10.0183 3.35032 9.28275 3.06304C8.53851 2.77235 7.84714 2.79903 7.2174 3.28256C6.60007 3.75655 6.05814 4.65811 5.56512 6.07157L5.80118 6.15391C6.28992 4.7527 6.81191 3.90909 7.36965 3.48085C7.91497 3.06214 8.50978 3.02952 9.1918 3.2959C9.88252 3.56569 10.6516 4.1391 11.5176 4.91922C12.3819 5.69786 13.3308 6.67093 14.3836 7.73074C18.5847 11.9598 24.4095 17.5417 32.7696 17.1331L32.7574 16.8834ZM5.56494 6.07212C4.32576 9.67853 4.83774 14.3748 6.44721 19.504C8.05793 24.6371 10.7741 30.2233 13.9682 35.6215C20.3548 46.415 28.6666 56.48 33.9113 60.6877L34.0678 60.4927C28.8553 56.3109 20.5617 46.2737 14.1834 35.4942C10.995 30.1057 8.28875 24.5377 6.68574 19.4291C5.08148 14.3165 4.58839 9.6835 5.80137 6.15336L5.56494 6.07212ZM33.9115 60.6878C36.5027 62.7595 38.7974 66.192 40.9758 70.2192C43.1535 74.2451 45.2053 78.8457 47.3204 83.2494C49.4333 87.6486 51.6088 91.8497 54.0288 95.0578C56.4473 98.2638 59.1261 100.5 62.2522 100.931L62.2863 100.683C59.2598 100.266 56.6335 98.0955 54.2284 94.9072C51.8249 91.721 49.6586 87.5401 47.5458 83.1412C45.4351 78.7468 43.3772 74.1332 41.1957 70.1002C39.0148 66.0685 36.7005 62.5975 34.0676 60.4926L33.9115 60.6878ZM62.2525 100.931C63.7469 101.133 65.0872 102.112 66.3071 103.707C67.5267 105.301 68.6154 107.497 69.6083 110.103C71.5941 115.316 73.186 122.14 74.6833 129C76.1796 135.855 77.5815 142.747 79.1864 148.08C79.9888 150.746 80.8441 153.03 81.791 154.728C82.7348 156.421 83.7849 157.559 84.99 157.887L85.0555 157.645C83.9529 157.346 82.9462 156.287 82.0094 154.607C81.0756 152.932 80.2265 150.668 79.4258 148.008C77.8245 142.687 76.4255 135.809 74.9276 128.946C73.4308 122.089 71.8354 115.247 69.8419 110.014C68.8453 107.398 67.7464 105.177 66.5057 103.555C65.2653 101.934 63.8724 100.898 62.2861 100.683L62.2525 100.931ZM84.9896 157.886C86.1121 158.196 87.411 159.097 88.8347 160.501C90.2558 161.902 91.7899 163.792 93.3842 166.062C96.5726 170.601 99.9938 176.645 103.224 183.292C109.685 196.588 115.371 212.279 116.901 223.144L117.149 223.109C115.614 212.207 109.915 196.489 103.449 183.182C100.215 176.528 96.7873 170.472 93.5888 165.918C91.9896 163.642 90.4458 161.738 89.0103 160.322C87.5775 158.91 86.2412 157.972 85.056 157.645L84.9896 157.886ZM116.901 223.144C118.444 234.082 124.301 242.28 130.605 249.723C133.762 253.449 137.021 256.976 139.924 260.577C142.825 264.174 145.356 267.829 147.047 271.794L147.277 271.696C145.573 267.701 143.025 264.024 140.119 260.42C137.215 256.819 133.941 253.274 130.796 249.561C124.498 242.126 118.681 233.974 117.149 223.109L116.901 223.144ZM147.047 271.794C150.434 279.773 158.903 289.219 166.969 297.494C168.987 299.564 170.981 301.562 172.866 303.446C174.75 305.33 176.525 307.101 178.105 308.717C179.685 310.333 181.07 311.794 182.174 313.058C183.28 314.324 184.099 315.388 184.554 316.211L184.773 316.09C184.304 315.242 183.47 314.162 182.362 312.894C181.253 311.624 179.865 310.159 178.284 308.542C176.702 306.925 174.927 305.153 173.042 303.269C171.158 301.385 169.165 299.388 167.148 297.319C159.076 289.039 150.642 279.625 147.277 271.696L147.047 271.794ZM184.554 316.21C185.47 317.877 186.388 320.068 187.302 322.306C188.214 324.542 189.12 326.824 190.009 328.66C190.453 329.579 190.895 330.389 191.332 331.029C191.768 331.667 192.209 332.148 192.655 332.39C192.881 332.513 193.111 332.577 193.345 332.566C193.579 332.555 193.807 332.469 194.026 332.308C194.459 331.989 194.866 331.372 195.254 330.422L195.023 330.327C194.639 331.266 194.254 331.83 193.878 332.106C193.692 332.243 193.511 332.308 193.333 332.316C193.155 332.324 192.969 332.276 192.775 332.171C192.381 331.957 191.968 331.516 191.539 330.888C191.111 330.263 190.676 329.465 190.234 328.551C189.35 326.724 188.447 324.452 187.533 322.212C186.621 319.976 185.697 317.771 184.773 316.09L184.554 316.21ZM195.254 330.422C196.005 328.583 197.35 327.667 199.052 327.334C200.763 327 202.835 327.257 205.019 327.78C207.202 328.303 209.482 329.087 211.607 329.797C213.728 330.505 215.7 331.141 217.253 331.358L217.288 331.11C215.762 330.897 213.813 330.27 211.687 329.56C209.566 328.851 207.274 328.063 205.078 327.537C202.883 327.011 200.769 326.744 199.004 327.089C197.23 327.435 195.809 328.401 195.023 330.327L195.254 330.422ZM217.253 331.358C218.081 331.474 218.819 331.047 219.469 330.24C220.118 329.434 220.695 328.231 221.209 326.74C222.238 323.756 223.024 319.581 223.598 315.02C224.747 305.896 225.054 295.196 224.752 289.316L224.502 289.329C224.804 295.193 224.497 305.878 223.35 314.989C222.776 319.545 221.993 323.7 220.973 326.659C220.462 328.139 219.896 329.311 219.274 330.083C218.652 330.855 217.992 331.209 217.288 331.11L217.253 331.358ZM694.43 155.383C697.82 155.808 700.011 155.448 701.374 154.451C702.743 153.449 703.245 151.828 703.32 149.822C703.395 147.817 703.044 145.394 702.678 142.753C702.311 140.108 701.927 137.236 701.927 134.316H701.677C701.677 137.255 702.064 140.143 702.431 142.788C702.798 145.437 703.144 147.835 703.07 149.813C702.996 151.79 702.504 153.314 701.226 154.249C699.942 155.189 697.833 155.558 694.461 155.135L694.43 155.383ZM701.927 134.316C701.927 131.368 701.155 129.748 699.955 128.917C698.763 128.091 697.187 128.072 695.65 128.229C694.88 128.308 694.107 128.434 693.392 128.53C692.673 128.626 692.012 128.693 691.449 128.662C690.886 128.63 690.441 128.499 690.136 128.219C689.835 127.942 689.649 127.497 689.649 126.786H689.399C689.399 127.54 689.597 128.063 689.967 128.403C690.333 128.741 690.848 128.878 691.435 128.911C692.024 128.945 692.706 128.874 693.425 128.777C694.15 128.68 694.911 128.556 695.676 128.478C697.208 128.321 698.702 128.353 699.813 129.122C700.915 129.886 701.677 131.404 701.677 134.316H701.927ZM689.649 126.786C689.649 125.307 689.379 122.732 688.82 119.99C688.263 117.249 687.414 114.329 686.253 112.166C685.673 111.085 685.01 110.184 684.258 109.591C683.504 108.996 682.657 108.709 681.722 108.866C680.791 109.021 679.793 109.613 678.723 110.733C677.653 111.854 676.503 113.512 675.269 115.819L675.49 115.937C676.717 113.641 677.855 112.004 678.904 110.906C679.954 109.807 680.906 109.256 681.763 109.112C682.615 108.969 683.392 109.227 684.103 109.788C684.817 110.351 685.461 111.218 686.033 112.284C687.177 114.416 688.02 117.308 688.576 120.04C689.131 122.771 689.399 125.329 689.399 126.786H689.649ZM675.269 115.819C672.794 120.455 671.761 126.783 671.719 133.624C671.677 140.468 672.628 147.84 674.134 154.571C675.639 161.302 677.7 167.399 679.881 171.694C680.971 173.841 682.095 175.545 683.2 176.652C684.301 177.756 685.41 178.293 686.462 178.031L686.402 177.789C685.481 178.018 684.458 177.56 683.377 176.476C682.298 175.395 681.189 173.718 680.104 171.581C677.935 167.31 675.88 161.234 674.378 154.516C672.875 147.799 671.927 140.447 671.969 133.626C672.01 126.801 673.042 120.521 675.49 115.937L675.269 115.819ZM686.462 178.031C687.355 177.809 687.934 177.239 688.287 176.431C688.637 175.63 688.766 174.593 688.772 173.42C688.784 171.077 688.303 168.123 688.034 165.306C687.765 162.473 687.711 159.78 688.551 157.901C688.969 156.968 689.605 156.24 690.546 155.793C691.49 155.345 692.753 155.175 694.43 155.383L694.461 155.135C692.754 154.923 691.44 155.092 690.439 155.567C689.436 156.043 688.761 156.82 688.323 157.799C687.453 159.746 687.517 162.502 687.786 165.33C688.056 168.174 688.534 171.092 688.522 173.419C688.516 174.58 688.388 175.576 688.058 176.331C687.731 177.079 687.208 177.588 686.402 177.789L686.462 178.031ZM643.893 260.012C645.132 266.772 650.239 272.038 655.656 274.145C658.366 275.199 661.164 275.466 663.601 274.725C666.042 273.982 668.108 272.231 669.355 269.275L669.124 269.178C667.905 272.069 665.894 273.766 663.528 274.485C661.158 275.206 658.419 274.951 655.747 273.912C650.401 271.833 645.361 266.633 644.139 259.967L643.893 260.012ZM669.355 269.275C670.608 266.272 669.433 263.204 667.061 260.557C664.688 257.908 661.096 255.655 657.445 254.259C653.798 252.864 650.065 252.315 647.412 253.108C646.081 253.505 645.015 254.242 644.376 255.384C643.737 256.525 643.534 258.052 643.893 260.012L644.139 259.967C643.787 258.044 643.993 256.581 644.594 255.506C645.194 254.433 646.2 253.73 647.483 253.347C650.059 252.578 653.729 253.105 657.356 254.492C660.98 255.878 664.534 258.111 666.875 260.723C669.216 263.337 670.324 266.304 669.124 269.179L669.355 269.275ZM595.459 401.509C587.117 399.841 580.16 403.215 573.255 405.927C566.342 408.643 559.466 410.707 551.21 406.531L551.097 406.755C559.455 410.981 566.421 408.88 573.346 406.16C580.279 403.437 587.156 400.104 595.41 401.754L595.459 401.509ZM551.21 406.531C542.877 402.349 532.484 402.395 524.518 404.405C520.534 405.41 517.146 406.909 514.919 408.626C512.7 410.338 511.594 412.304 512.299 414.228L512.534 414.142C511.888 412.38 512.875 410.519 515.072 408.824C517.262 407.135 520.615 405.647 524.579 404.647C532.507 402.647 542.834 402.608 551.097 406.755L551.21 406.531ZM512.299 414.228C512.931 415.948 514.345 417.279 516.351 418.324C518.356 419.368 520.963 420.131 524.004 420.709C530.086 421.864 537.934 422.282 546.234 422.699L546.247 422.45C537.941 422.032 530.112 421.615 524.051 420.463C521.02 419.888 518.44 419.13 516.466 418.102C514.493 417.074 513.137 415.782 512.534 414.142L512.299 414.228ZM546.234 422.7C554.568 423.107 562.432 420.154 569.583 417.008C573.162 415.434 576.557 413.814 579.754 412.534C582.951 411.255 585.934 410.322 588.682 410.121L588.664 409.872C585.877 410.076 582.865 411.02 579.661 412.302C576.459 413.583 573.051 415.209 569.482 416.779C562.335 419.923 554.518 422.854 546.246 422.45L546.234 422.7ZM588.683 410.121C591.453 409.912 594.303 409.493 596.76 408.93C599.213 408.368 601.289 407.659 602.501 406.862C603.104 406.466 603.518 406.032 603.634 405.561C603.754 405.076 603.549 404.596 603.025 404.141C602.502 403.688 601.646 403.24 600.409 402.801C599.17 402.362 597.539 401.928 595.459 401.509L595.41 401.754C597.483 402.172 599.102 402.603 600.326 403.037C601.552 403.472 602.374 403.907 602.861 404.33C603.345 404.751 603.481 405.141 603.391 405.501C603.298 405.877 602.952 406.266 602.363 406.654C601.191 407.424 599.152 408.126 596.705 408.687C594.261 409.247 591.424 409.663 588.664 409.872L588.683 410.121ZM727.076 248.166C719.05 244.794 708.203 244.551 699.7 246.529C695.449 247.518 691.77 249.065 689.321 251.065C686.868 253.068 685.633 255.54 686.321 258.359L686.564 258.3C685.906 255.605 687.073 253.224 689.479 251.259C691.888 249.292 695.525 247.756 699.757 246.772C708.222 244.803 719.013 245.05 726.979 248.397L727.076 248.166ZM686.321 258.359C686.942 260.905 688.228 262.559 690.017 263.599C691.8 264.636 694.072 265.057 696.656 265.163C699.241 265.268 702.152 265.059 705.22 264.823C708.29 264.587 711.519 264.326 714.749 264.326V264.076C711.507 264.076 708.268 264.338 705.201 264.574C702.13 264.809 699.234 265.018 696.666 264.913C694.098 264.808 691.874 264.39 690.143 263.383C688.417 262.38 687.17 260.785 686.564 258.3L686.321 258.359ZM714.749 264.326C721.161 264.326 726.048 267.448 730.193 270.59C732.261 272.157 734.153 273.736 735.945 274.918C737.739 276.101 739.458 276.904 741.19 276.904V276.654C739.533 276.654 737.865 275.885 736.083 274.71C734.299 273.533 732.426 271.968 730.344 270.391C726.191 267.243 721.247 264.076 714.749 264.076V264.326ZM741.19 276.904C742.074 276.904 742.772 276.546 743.277 275.906C743.779 275.272 744.084 274.368 744.205 273.28C744.448 271.104 743.961 268.148 742.765 264.992C740.372 258.68 735.121 251.524 727.076 248.166L726.98 248.397C734.945 251.722 740.156 258.815 742.531 265.081C743.719 268.215 744.194 271.129 743.957 273.253C743.838 274.314 743.543 275.167 743.081 275.751C742.623 276.331 741.996 276.654 741.19 276.654V276.904ZM403.085 392.399C403.008 391.114 402.555 390.127 401.794 389.38C401.035 388.635 399.979 388.137 398.708 387.806C396.169 387.147 392.728 387.149 388.963 387.254C385.189 387.361 381.083 387.571 377.189 387.338C373.295 387.104 369.629 386.427 366.738 384.768L366.613 384.985C369.555 386.673 373.266 387.353 377.174 387.587C381.083 387.822 385.205 387.61 388.97 387.504C392.742 387.398 396.147 387.399 398.645 388.048C399.893 388.372 400.903 388.856 401.619 389.558C402.332 390.258 402.762 391.184 402.836 392.414L403.085 392.399ZM366.738 384.768C365.287 383.932 364.418 383.119 364.005 382.333C363.596 381.555 363.626 380.791 364.005 380.023C364.386 379.249 365.123 378.47 366.129 377.685C367.132 376.902 368.393 376.12 369.812 375.336C372.652 373.766 376.103 372.198 379.355 370.595C382.601 368.995 385.65 367.36 387.662 365.663L387.501 365.472C385.515 367.146 382.492 368.769 379.244 370.37C376.003 371.968 372.538 373.544 369.691 375.117C368.267 375.904 366.993 376.694 365.975 377.488C364.958 378.282 364.187 379.088 363.78 379.913C363.371 380.744 363.333 381.593 363.784 382.449C364.229 383.296 365.145 384.139 366.613 384.985L366.738 384.768ZM387.662 365.663C388.666 364.819 389.351 364.035 389.735 363.322C390.119 362.608 390.205 361.954 389.991 361.387C389.778 360.823 389.278 360.372 388.549 360.038C387.819 359.704 386.848 359.481 385.667 359.378C380.951 358.963 372.784 360.449 362.939 364.653L363.038 364.883C372.864 360.686 380.987 359.218 385.646 359.627C386.809 359.729 387.75 359.948 388.444 360.266C389.14 360.584 389.576 360.995 389.757 361.476C389.938 361.954 389.876 362.53 389.514 363.204C389.152 363.878 388.493 364.639 387.501 365.472L387.662 365.663ZM362.94 364.653C353.147 368.81 342.59 364.233 334.361 360.038C332.31 358.993 330.398 357.968 328.69 357.116C326.981 356.264 325.462 355.578 324.187 355.207C322.918 354.837 321.859 354.77 321.093 355.2C320.317 355.635 319.887 356.551 319.809 358.031L320.059 358.044C320.135 356.597 320.552 355.79 321.215 355.418C321.888 355.04 322.86 355.08 324.117 355.447C325.369 355.811 326.87 356.489 328.578 357.34C330.287 358.192 332.188 359.211 334.248 360.261C342.465 364.45 353.124 369.091 363.037 364.883L362.94 364.653ZM319.809 358.031C319.735 359.462 319.14 360.445 318.144 361.071C317.14 361.701 315.714 361.976 313.971 361.951C310.486 361.9 305.793 360.65 300.837 358.766C295.885 356.884 290.682 354.374 286.181 351.812C281.677 349.249 277.885 346.638 275.749 344.558L275.574 344.737C277.734 346.84 281.548 349.463 286.057 352.029C290.568 354.597 295.783 357.113 300.748 359C305.711 360.886 310.438 362.149 313.968 362.201C315.732 362.226 317.214 361.95 318.277 361.282C319.348 360.61 319.981 359.549 320.059 358.044L319.809 358.031ZM275.749 344.558C273.581 342.452 269.876 340.193 265.44 338.238C261.001 336.282 255.821 334.626 250.697 333.731C245.575 332.835 240.499 332.699 236.274 333.79C232.046 334.882 228.662 337.206 226.948 341.233L227.178 341.331C228.854 337.393 232.163 335.11 236.337 334.032C240.514 332.953 245.551 333.085 250.654 333.977C255.757 334.869 260.917 336.518 265.339 338.467C269.763 340.417 273.438 342.661 275.575 344.738L275.749 344.558ZM226.948 341.234C225.264 345.212 223.643 347.29 222.212 348.412C220.785 349.532 219.535 349.71 218.56 349.865C218.075 349.941 217.637 350.015 217.288 350.208C216.929 350.408 216.674 350.729 216.535 351.274C216.399 351.811 216.374 352.571 216.467 353.66C216.561 354.751 216.774 356.184 217.122 358.072L217.368 358.027C217.021 356.141 216.809 354.718 216.716 353.638C216.624 352.557 216.652 351.831 216.778 351.335C216.902 350.847 217.119 350.588 217.41 350.427C217.712 350.259 218.104 350.19 218.599 350.112C219.581 349.956 220.885 349.771 222.366 348.609C223.843 347.451 225.485 345.331 227.178 341.331L226.948 341.234ZM217.122 358.072C217.585 360.603 218.438 362.156 219.564 363.048C220.692 363.94 222.071 364.152 223.546 364.047C225.018 363.942 226.605 363.521 228.157 363.13C229.716 362.737 231.239 362.375 232.607 362.375V362.125C231.203 362.125 229.65 362.496 228.096 362.887C226.535 363.281 224.973 363.695 223.528 363.798C222.085 363.9 220.778 363.69 219.719 362.852C218.659 362.013 217.825 360.526 217.368 358.027L217.122 358.072ZM232.607 362.375C233.92 362.375 234.771 363.214 235.435 364.56C236.101 365.909 236.557 367.727 237.097 369.621C237.633 371.506 238.251 373.459 239.239 375.044C240.229 376.633 241.597 377.86 243.634 378.28L243.685 378.035C241.732 377.632 240.416 376.459 239.451 374.911C238.484 373.359 237.874 371.438 237.337 369.552C236.802 367.675 236.338 365.825 235.659 364.449C234.978 363.069 234.061 362.125 232.607 362.125V362.375ZM243.633 378.28C245.629 378.705 248.777 379.651 252.425 380.716C256.069 381.78 260.207 382.961 264.172 383.853C268.135 384.744 271.935 385.348 274.902 385.254C276.385 385.207 277.67 384.985 278.665 384.531C279.663 384.074 280.374 383.382 280.694 382.397L280.456 382.32C280.162 383.224 279.51 383.87 278.561 384.303C277.608 384.738 276.361 384.958 274.894 385.004C271.96 385.097 268.185 384.499 264.227 383.609C260.27 382.719 256.139 381.54 252.495 380.476C248.854 379.413 245.692 378.463 243.685 378.035L243.633 378.28ZM280.694 382.397C281.281 380.596 283.205 379.663 286.036 379.521C288.859 379.38 292.533 380.029 296.524 381.335C304.504 383.946 313.711 389.169 319.842 395.856L320.026 395.688C313.86 388.962 304.614 383.719 296.602 381.097C292.596 379.786 288.889 379.128 286.024 379.272C283.166 379.415 281.094 380.362 280.456 382.32L280.694 382.397ZM319.842 395.857C326.018 402.582 336.197 406.148 346.198 407.722C356.202 409.296 366.059 408.882 371.616 407.625L371.561 407.381C366.04 408.63 356.217 409.045 346.237 407.475C336.255 405.904 326.145 402.351 320.026 395.687L319.842 395.857ZM371.616 407.625C374.355 407.004 377.177 407.315 379.943 408.006C382.712 408.698 385.412 409.767 387.916 410.658C390.411 411.546 392.719 412.26 394.677 412.219C395.659 412.199 396.558 411.988 397.35 411.511C398.143 411.034 398.821 410.295 399.367 409.231L399.144 409.116C398.616 410.147 397.968 410.848 397.221 411.297C396.475 411.747 395.621 411.949 394.671 411.969C392.766 412.009 390.5 411.312 388 410.422C385.507 409.535 382.788 408.459 380.004 407.763C377.218 407.067 374.353 406.748 371.561 407.381L371.616 407.625ZM399.367 409.231C399.899 408.202 400.475 407.659 401.089 407.445C401.702 407.231 402.382 407.335 403.141 407.664C403.901 407.992 404.726 408.539 405.62 409.185C406.509 409.827 407.472 410.572 408.491 411.278C410.532 412.694 412.842 413.992 415.426 414.135C418.017 414.279 420.858 413.26 423.955 410.096L423.777 409.921C420.717 413.047 417.943 414.024 415.44 413.885C412.929 413.746 410.666 412.483 408.633 411.073C407.615 410.367 406.666 409.632 405.766 408.982C404.871 408.335 404.028 407.775 403.241 407.434C402.453 407.093 401.704 406.966 401.006 407.209C400.309 407.452 399.692 408.057 399.145 409.116L399.367 409.231ZM423.955 410.096C425.498 408.522 426.352 407.208 426.644 406.092C426.94 404.965 426.662 404.048 425.966 403.291C425.279 402.542 424.188 401.954 422.863 401.455C421.536 400.955 419.958 400.54 418.286 400.146C414.934 399.356 411.203 398.65 408.264 397.514C405.318 396.375 403.236 394.829 403.085 392.399L402.836 392.414C402.996 395.008 405.22 396.605 408.173 397.747C411.134 398.892 414.895 399.604 418.229 400.39C419.899 400.783 421.463 401.195 422.775 401.689C424.089 402.183 425.135 402.755 425.782 403.46C426.422 404.156 426.676 404.987 426.403 406.028C426.126 407.081 425.308 408.358 423.777 409.921L423.955 410.096ZM886.908 209.576C884.551 209.796 882.718 211.354 881.172 213.53C879.627 215.705 878.353 218.522 877.123 221.297C875.891 224.079 874.704 226.818 873.328 228.863C871.95 230.91 870.407 232.226 868.475 232.226V232.476C870.537 232.476 872.145 231.068 873.535 229.002C874.926 226.935 876.123 224.172 877.352 221.398C878.584 218.619 879.848 215.826 881.376 213.674C882.905 211.523 884.681 210.035 886.931 209.825L886.908 209.576ZM868.475 232.226C867.447 232.226 866.379 232.589 865.272 233.227C864.164 233.865 863.011 234.782 861.811 235.898C859.412 238.129 856.812 241.172 854.008 244.417C848.39 250.918 841.949 258.23 834.6 261.582L834.703 261.81C842.112 258.431 848.588 251.071 854.197 244.581C857.005 241.331 859.595 238.3 861.981 236.081C863.174 234.972 864.312 234.069 865.396 233.444C866.481 232.819 867.506 232.476 868.475 232.476V232.226ZM834.6 261.582C833.695 261.992 832.851 262.127 832.06 262.023C831.269 261.919 830.523 261.574 829.816 261.012C828.397 259.884 827.146 257.888 826.028 255.243C823.795 249.956 822.124 242.141 820.702 233.71C819.278 225.276 818.108 216.257 816.866 208.537C816.246 204.68 815.608 201.152 814.914 198.193C814.22 195.237 813.467 192.839 812.612 191.252L812.392 191.37C813.23 192.927 813.977 195.297 814.67 198.25C815.363 201.2 815.999 204.722 816.619 208.576C817.858 216.278 819.033 225.325 820.455 233.752C821.878 242.182 823.552 250.023 825.798 255.34C826.921 257.997 828.192 260.04 829.66 261.207C830.396 261.793 831.184 262.16 832.027 262.271C832.871 262.382 833.763 262.236 834.703 261.81L834.6 261.582ZM812.612 191.252C810.905 188.076 807.308 185.075 802.834 182.582C798.357 180.087 792.986 178.093 787.712 176.937C782.44 175.782 777.253 175.463 773.148 176.33C769.042 177.197 765.991 179.258 765.053 182.878L765.295 182.941C766.2 179.449 769.142 177.431 773.199 176.575C777.257 175.718 782.405 176.03 787.659 177.181C792.91 178.332 798.258 180.319 802.712 182.801C807.17 185.285 810.719 188.257 812.392 191.37L812.612 191.252ZM765.053 182.878C764.134 186.425 762.652 188.605 760.932 190.069C759.208 191.535 757.237 192.289 755.32 192.97C753.41 193.648 751.543 194.256 750.074 195.437C748.596 196.625 747.53 198.385 747.192 201.345L747.44 201.373C747.772 198.468 748.812 196.773 750.231 195.632C751.659 194.484 753.479 193.889 755.404 193.205C757.321 192.524 759.332 191.758 761.094 190.259C762.859 188.758 764.365 186.53 765.295 182.941L765.053 182.878ZM747.192 201.345C746.887 204.072 746.925 205.926 747.289 207.169C747.472 207.793 747.738 208.268 748.089 208.622C748.44 208.975 748.869 209.201 749.366 209.337C750.353 209.605 751.625 209.523 753.127 209.379C754.638 209.235 756.397 209.026 758.386 209.026V208.776C756.382 208.776 754.608 208.987 753.104 209.131C751.592 209.275 750.367 209.35 749.432 209.095C748.969 208.969 748.581 208.763 748.266 208.446C747.951 208.128 747.703 207.693 747.529 207.099C747.179 205.906 747.136 204.094 747.44 201.373L747.192 201.345ZM758.386 209.026C760.357 209.026 761.824 209.541 762.978 210.474C764.135 211.409 764.989 212.773 765.715 214.49C766.442 216.207 767.036 218.266 767.682 220.584C768.328 222.9 769.023 225.471 769.951 228.202L770.188 228.122C769.263 225.399 768.569 222.836 767.923 220.517C767.278 218.202 766.679 216.127 765.945 214.393C765.211 212.658 764.338 211.252 763.135 210.28C761.929 209.305 760.404 208.776 758.386 208.776V209.026ZM769.951 228.202C770.891 230.977 773.006 232.574 775.745 233.396C778.478 234.217 781.841 234.269 785.307 233.955C788.773 233.641 792.354 232.96 795.525 232.306C798.701 231.65 801.458 231.024 803.294 230.816L803.266 230.568C801.415 230.778 798.639 231.408 795.474 232.061C792.305 232.715 788.736 233.394 785.284 233.706C781.83 234.019 778.505 233.964 775.817 233.157C773.134 232.351 771.095 230.801 770.188 228.122L769.951 228.202ZM803.294 230.816C805.093 230.613 806.513 231.326 807.477 232.436C808.445 233.549 808.953 235.061 808.914 236.444C808.876 237.826 808.295 239.057 807.11 239.646C805.921 240.237 804.083 240.202 801.486 238.957L801.378 239.182C804.006 240.443 805.932 240.51 807.221 239.87C808.514 239.227 809.125 237.894 809.164 236.451C809.204 235.008 808.676 233.434 807.666 232.272C806.653 231.106 805.155 230.354 803.266 230.568L803.294 230.816ZM801.486 238.957C798.857 237.696 796.869 237.478 795.249 237.838C793.632 238.198 792.402 239.13 791.284 240.126C790.158 241.129 789.157 242.183 787.971 242.842C786.8 243.493 785.452 243.752 783.641 243.14L783.561 243.377C785.441 244.012 786.862 243.744 788.093 243.06C789.31 242.384 790.347 241.296 791.45 240.313C792.561 239.324 793.751 238.428 795.303 238.082C796.853 237.738 798.783 237.938 801.378 239.182L801.486 238.957ZM783.641 243.14C779.94 241.87 775.606 241.441 772.805 242.076C771.41 242.392 770.353 242.982 769.981 243.908C769.607 244.841 769.952 246.047 771.191 247.527L771.382 247.367C770.16 245.906 769.892 244.801 770.213 244.001C770.536 243.195 771.483 242.631 772.86 242.319C775.603 241.698 779.887 242.116 783.56 243.377L783.641 243.14ZM771.191 247.528C776.148 253.408 784.062 259.224 784.062 272.579H784.312C784.312 259.108 776.304 253.205 771.382 247.367L771.191 247.528ZM784.062 272.579C784.062 275.951 784.953 278.34 786.308 279.849C787.664 281.359 789.475 281.975 791.283 281.815C794.898 281.496 798.483 278.084 798.483 272.579H798.233C798.233 277.97 794.732 281.259 791.261 281.566C789.527 281.72 787.795 281.13 786.494 279.682C785.192 278.232 784.312 275.909 784.312 272.579H784.062ZM798.483 272.579C798.483 271.224 798.598 270.275 798.82 269.653C799.04 269.037 799.354 268.768 799.747 268.717C800.16 268.664 800.698 268.844 801.375 269.232C802.047 269.617 802.834 270.193 803.736 270.898C807.34 273.713 812.738 278.536 819.835 281.05L819.918 280.815C812.87 278.317 807.51 273.528 803.89 270.701C802.987 269.996 802.188 269.41 801.499 269.015C800.815 268.623 800.215 268.405 799.715 268.469C799.196 268.537 798.823 268.902 798.585 269.569C798.348 270.232 798.233 271.217 798.233 272.579H798.483ZM819.834 281.05C823.359 282.308 825.379 283.715 826.65 285.125C827.922 286.535 828.454 287.956 828.994 289.27C829.533 290.582 830.083 291.792 831.401 292.72C832.716 293.646 834.78 294.28 838.322 294.495L838.337 294.246C834.812 294.031 832.804 293.402 831.545 292.516C830.29 291.633 829.763 290.484 829.225 289.175C828.688 287.867 828.142 286.405 826.836 284.957C825.529 283.509 823.47 282.082 819.918 280.815L819.834 281.05ZM838.322 294.495C845.366 294.917 856.876 298.683 868.171 303.916C879.464 309.148 890.516 315.835 896.648 322.084L896.826 321.909C890.662 315.628 879.578 308.925 868.276 303.689C856.975 298.453 845.429 294.671 838.337 294.246L838.322 294.495ZM896.648 322.084C899.72 325.218 901.482 328.086 902.524 330.806C903.567 333.526 903.891 336.106 904.081 338.67C904.461 343.796 904.301 348.867 908.326 354.778L908.533 354.637C904.553 348.792 904.712 343.797 904.331 338.651C904.14 336.079 903.813 333.471 902.758 330.716C901.702 327.96 899.92 325.064 896.827 321.909L896.648 322.084ZM908.326 354.778C912.314 360.622 914.91 366.882 915.136 371.669C915.249 374.062 914.769 376.07 913.595 377.479C912.423 378.884 910.54 379.714 907.799 379.714V379.964C910.592 379.964 912.554 379.117 913.787 377.639C915.016 376.164 915.5 374.085 915.385 371.657C915.156 366.805 912.533 360.499 908.533 354.637L908.326 354.778ZM907.799 379.714C902.215 379.714 896.5 383.51 892.57 388.232C890.603 390.596 889.077 393.198 888.235 395.688C887.393 398.176 887.23 400.565 888.012 402.489L888.244 402.394C887.493 400.547 887.64 398.225 888.471 395.768C889.302 393.313 890.811 390.737 892.762 388.392C896.668 383.698 902.32 379.964 907.799 379.964V379.714ZM888.012 402.489C888.416 403.48 889.361 404.152 890.681 404.582C892.002 405.011 893.72 405.205 895.71 405.224C899.692 405.264 904.795 404.607 910.063 403.716C915.331 402.825 920.773 401.699 925.429 400.795C930.092 399.891 933.956 399.213 936.087 399.213V398.963C933.927 398.963 930.035 399.647 925.381 400.55C920.721 401.454 915.286 402.58 910.021 403.47C904.756 404.36 899.671 405.013 895.713 404.974C893.733 404.955 892.044 404.762 890.758 404.344C889.471 403.925 888.608 403.288 888.244 402.394L888.012 402.489ZM936.087 399.213C937.45 399.213 938.833 400.037 940.322 401.467C941.809 402.893 943.38 404.901 945.119 407.227C948.593 411.873 952.726 417.772 958.152 422.727L958.321 422.542C952.917 417.607 948.8 411.732 945.32 407.077C943.582 404.753 941.999 402.729 940.495 401.286C938.995 399.846 937.55 398.963 936.087 398.963V399.213ZM958.362 422.635V243.791H958.112V422.635H958.362ZM958.289 243.677C944.992 237.572 929.065 228.882 915.506 221.8C908.728 218.26 902.542 215.121 897.574 212.909C895.091 211.803 892.909 210.928 891.11 210.35C889.315 209.774 887.884 209.489 886.909 209.576L886.931 209.825C887.852 209.742 889.241 210.013 891.033 210.588C892.821 211.162 894.993 212.033 897.472 213.137C902.432 215.346 908.613 218.481 915.39 222.022C928.943 229.1 944.88 237.795 958.184 243.905L958.289 243.677ZM620.618 422.021C618.739 423.753 616.551 425.075 613.914 425.892L613.988 426.131C616.663 425.302 618.882 423.96 620.788 422.205L620.618 422.021ZM613.83 425.979C613.416 427.544 613.006 429.188 612.523 430.63C612.038 432.075 611.485 433.295 610.795 434.024L610.976 434.196C611.707 433.424 612.274 432.157 612.76 430.709C613.247 429.257 613.659 427.602 614.071 426.043L613.83 425.979ZM610.794 434.025C610.592 434.24 610.377 434.37 610.152 434.432C609.926 434.494 609.683 434.49 609.423 434.425C608.899 434.294 608.319 433.92 607.714 433.374C606.506 432.286 605.245 430.56 604.194 428.934L603.984 429.07C605.038 430.699 606.313 432.448 607.547 433.56C608.162 434.115 608.779 434.522 609.362 434.668C609.656 434.741 609.943 434.749 610.218 434.673C610.493 434.598 610.747 434.441 610.977 434.196L610.794 434.025ZM604.027 428.893C598.05 432.277 593.497 438.832 591.472 445.289C590.459 448.519 590.076 451.733 590.468 454.521C590.86 457.311 592.029 459.682 594.127 461.208L594.274 461.006C592.245 459.53 591.1 457.228 590.715 454.487C590.33 451.744 590.706 448.569 591.711 445.364C593.721 438.953 598.24 432.457 604.15 429.11L604.027 428.893ZM594.127 461.208C596.15 462.678 598.404 462.8 600.737 461.995C603.064 461.193 605.475 459.468 607.834 457.235C612.554 452.767 617.103 446.23 620.41 440.834L620.197 440.703C616.893 446.094 612.358 452.608 607.662 457.053C605.314 459.276 602.934 460.973 600.656 461.759C598.383 462.542 596.217 462.418 594.274 461.006L594.127 461.208ZM620.41 440.834C621.485 439.065 622.437 437.441 623.211 436.035L622.992 435.914C622.22 437.317 621.271 438.937 620.196 440.704L620.41 440.834ZM623.211 436.035C623.656 435.228 624.383 434.378 625.268 433.51L625.093 433.331C624.202 434.206 623.454 435.075 622.992 435.914L623.211 436.035ZM625.272 433.506C625.871 432.87 626.559 432.257 627.328 431.654L627.174 431.458C626.397 432.066 625.699 432.688 625.09 433.335L625.272 433.506ZM627.362 431.498C625.439 427.835 622.971 424.228 620.792 422.025L620.614 422.201C622.77 424.381 625.225 427.965 627.14 431.614L627.362 431.498ZM449.791 206.492C455.349 201.857 458.738 195.117 460.583 187.449C462.428 179.782 462.732 171.178 462.114 162.805L461.865 162.823C462.482 171.181 462.177 179.756 460.34 187.391C458.502 195.025 455.134 201.71 449.631 206.3L449.791 206.492ZM462.114 162.805C461.813 158.652 463.334 155.489 465.859 152.97C468.388 150.447 471.925 148.57 475.648 147.001C477.509 146.217 479.413 145.511 481.259 144.84C483.104 144.169 484.891 143.533 486.513 142.889C488.134 142.246 489.595 141.594 490.787 140.89C491.978 140.187 492.911 139.426 493.466 138.561L493.256 138.426C492.731 139.243 491.837 139.98 490.66 140.675C489.484 141.369 488.038 142.016 486.42 142.657C484.803 143.299 483.021 143.933 481.174 144.605C479.328 145.276 477.418 145.984 475.551 146.77C471.819 148.343 468.246 150.235 465.682 152.793C463.114 155.356 461.558 158.587 461.865 162.823L462.114 162.805ZM493.466 138.561C494.567 136.851 494.719 134.877 494.212 132.812C493.706 130.748 492.541 128.586 490.996 126.484C487.907 122.279 483.279 118.286 479.275 115.761L479.141 115.972C483.124 118.484 487.727 122.457 490.795 126.632C492.329 128.72 493.474 130.852 493.969 132.871C494.464 134.889 494.31 136.788 493.256 138.425L493.466 138.561ZM479.274 115.761C475.339 113.294 475.024 109.386 475.022 105.197C475.021 103.11 475.097 100.951 474.826 98.8994C474.556 96.8439 473.936 94.8827 472.534 93.1851L472.341 93.3442C473.703 94.9939 474.311 96.9052 474.579 98.9321C474.846 100.963 474.771 103.097 474.772 105.197C474.774 109.382 475.081 113.427 479.141 115.973L479.274 115.761ZM472.534 93.1849C469.775 89.854 466.095 83.7858 464.105 78.4545C463.108 75.7863 462.542 73.3197 462.713 71.4784C462.799 70.5598 463.067 69.8074 463.547 69.2617C464.025 68.718 464.724 68.3662 465.698 68.2689L465.673 68.0201C464.648 68.1225 463.886 68.4967 463.359 69.0966C462.833 69.6945 462.553 70.5035 462.464 71.4552C462.287 73.3547 462.871 75.8652 463.87 78.5419C465.871 83.9003 469.565 89.9927 472.342 93.3444L472.534 93.1849ZM465.699 68.2688C466.717 68.1591 467.414 67.8198 467.848 67.2813C468.281 66.7446 468.435 66.0312 468.414 65.2092C468.373 63.5721 467.632 61.4278 466.865 59.1834C466.095 56.9272 465.293 54.56 465.103 52.4455C464.913 50.3348 465.334 48.5055 466.977 47.2893L466.828 47.0883C465.086 48.378 464.66 50.3138 464.854 52.4679C465.047 54.6181 465.861 57.0154 466.629 59.2642C467.401 61.5248 468.124 63.6259 468.165 65.2155C468.185 66.0068 468.034 66.652 467.653 67.1244C467.274 67.5949 466.649 67.915 465.672 68.0202L465.699 68.2688ZM466.978 47.2886C467.89 46.601 468.944 45.8886 470.055 45.1501L469.916 44.9419C468.806 45.6804 467.746 46.3965 466.827 47.089L466.978 47.2886ZM470.056 44.9425C468.032 43.5728 466.134 42.425 464.455 41.6193C462.779 40.815 461.307 40.3449 460.141 40.3449V40.5949C461.25 40.5949 462.68 41.0448 464.346 41.8447C466.01 42.643 467.897 43.7833 469.916 45.1495L470.056 44.9425ZM460.141 40.3449C458.917 40.3449 457.48 40.2928 455.903 40.2439C454.326 40.195 452.61 40.1494 450.831 40.1628C447.274 40.1895 443.457 40.4518 439.982 41.398C436.506 42.3443 433.363 43.977 431.166 46.7509C428.968 49.5262 427.729 53.4287 428.032 58.8902L428.282 58.8764C427.981 53.4605 429.21 49.6227 431.362 46.9061C433.515 44.1879 436.603 42.5769 440.047 41.6392C443.492 40.7014 447.284 40.4394 450.833 40.4128C452.607 40.3994 454.319 40.4449 455.895 40.4938C457.47 40.5426 458.912 40.5949 460.141 40.5949V40.3449ZM428.032 58.8905C428.345 64.329 427.657 67.8685 426.48 70.3048C425.305 72.7377 423.636 74.0832 421.956 75.1233C421.109 75.648 420.277 76.0845 419.483 76.5557C418.696 77.0223 417.964 77.5136 417.356 78.1281C416.13 79.3662 415.429 81.0851 415.736 84.0527L415.985 84.0269C415.684 81.117 416.371 79.4779 417.533 78.3039C418.119 77.7123 418.829 77.2339 419.61 76.7707C420.384 76.312 421.244 75.8583 422.088 75.3358C423.791 74.2816 425.502 72.9047 426.705 70.4135C427.907 67.9256 428.596 64.3392 428.282 58.8761L428.032 58.8905ZM415.736 84.0529C416.043 86.9721 415.738 89.1562 415.128 91.0254C414.518 92.8984 413.602 94.4584 412.677 96.1386C411.753 97.8166 410.824 99.6074 410.205 101.926C409.586 104.244 409.278 107.085 409.588 110.865L409.837 110.845C409.529 107.089 409.836 104.277 410.447 101.99C411.057 99.7022 411.974 97.933 412.896 96.2591C413.817 94.5875 414.747 93.0036 415.366 91.1029C415.987 89.1984 416.295 86.9789 415.985 84.0267L415.736 84.0529ZM409.588 110.865C409.901 114.635 409.672 117.019 408.977 118.614C408.287 120.197 407.131 121.017 405.536 121.638C402.345 122.882 397.373 123.32 391.198 127.531L391.338 127.737C397.486 123.546 402.362 123.143 405.626 121.871C407.258 121.235 408.481 120.379 409.206 118.714C409.927 117.06 410.151 114.623 409.837 110.844L409.588 110.865ZM391.198 127.53C388.127 129.617 386.159 130.324 384.743 130.244C383.341 130.166 382.449 129.313 381.53 128.164C380.618 127.022 379.681 125.588 378.206 124.45C376.722 123.306 374.697 122.461 371.597 122.461V122.711C374.646 122.711 376.616 123.54 378.053 124.648C379.497 125.762 380.404 127.156 381.335 128.32C382.26 129.477 383.212 130.409 384.729 130.494C386.233 130.578 388.261 129.828 391.338 127.737L391.198 127.53ZM371.597 122.461C365.412 122.461 362 124.574 359.214 127.106C358.519 127.737 357.863 128.394 357.214 129.048C356.564 129.704 355.922 130.356 355.251 130.983C353.91 132.234 352.46 133.375 350.631 134.203L350.735 134.43C352.598 133.587 354.07 132.426 355.422 131.165C356.097 130.535 356.743 129.879 357.392 129.224C358.041 128.57 358.692 127.917 359.382 127.291C362.132 124.792 365.486 122.711 371.597 122.711V122.461ZM350.632 134.202C348.806 135.025 346.519 135.336 344.026 135.413C341.533 135.49 338.851 135.334 336.235 135.23C333.623 135.125 331.079 135.072 328.877 135.36C326.677 135.648 324.8 136.278 323.54 137.558L323.718 137.733C324.92 136.513 326.73 135.893 328.91 135.608C331.087 135.323 333.612 135.375 336.225 135.479C338.834 135.584 341.529 135.741 344.033 135.663C346.537 135.585 348.864 135.273 350.734 134.43L350.632 134.202ZM323.54 137.558C322.945 138.168 322.321 138.441 321.676 138.464C321.027 138.487 320.34 138.259 319.622 137.835C318.182 136.987 316.657 135.383 315.118 133.605C313.586 131.835 312.041 129.892 310.576 128.399C309.843 127.651 309.124 127.01 308.431 126.556C307.739 126.102 307.061 125.826 306.411 125.826V126.076C306.992 126.076 307.621 126.323 308.294 126.765C308.966 127.205 309.67 127.832 310.398 128.574C311.855 130.06 313.386 131.986 314.929 133.769C316.465 135.544 318.015 137.179 319.495 138.051C320.236 138.488 320.971 138.74 321.685 138.714C322.404 138.688 323.086 138.382 323.719 137.733L323.54 137.558ZM306.411 125.826C306.138 125.826 305.859 125.702 305.57 125.446C305.282 125.19 304.993 124.808 304.706 124.314C304.133 123.326 303.581 121.909 303.057 120.203C302.008 116.794 301.079 112.261 300.306 107.771L300.06 107.813C300.833 112.306 301.765 116.852 302.818 120.277C303.344 121.988 303.902 123.427 304.49 124.44C304.784 124.946 305.088 125.352 305.404 125.633C305.721 125.914 306.057 126.076 306.411 126.076V125.826ZM300.213 107.671C299.332 107.452 298.514 107.302 297.789 107.377L297.815 107.626C298.493 107.556 299.274 107.696 300.153 107.913L300.213 107.671ZM297.788 107.377C296.758 107.488 295.656 108.047 294.536 108.943C293.415 109.839 292.266 111.08 291.14 112.57C288.888 115.551 286.72 119.543 285.043 123.811C283.366 128.079 282.178 132.63 281.892 136.73C281.607 140.826 282.22 144.494 284.172 146.972L284.369 146.817C282.473 144.411 281.858 140.819 282.142 136.747C282.425 132.68 283.605 128.154 285.275 123.902C286.946 119.651 289.104 115.68 291.339 112.721C292.457 111.241 293.592 110.017 294.692 109.138C295.794 108.257 296.851 107.73 297.815 107.626L297.788 107.377ZM284.172 146.972C288.766 152.81 290.458 160.317 291.533 167.539C292.07 171.14 292.456 174.69 292.972 177.895C293.489 181.106 294.14 184.003 295.218 186.328L295.445 186.223C294.382 183.93 293.735 181.062 293.218 177.855C292.701 174.644 292.32 171.125 291.781 167.502C290.704 160.275 289.006 152.71 284.369 146.817L284.172 146.972ZM295.219 186.329C296.308 188.657 297.979 190.502 299.862 192.234C300.803 193.099 301.8 193.938 302.804 194.794C303.809 195.651 304.823 196.525 305.802 197.464C307.761 199.342 309.579 201.477 310.909 204.236C312.239 206.995 313.083 210.384 313.083 214.774H313.333C313.333 210.35 312.482 206.923 311.134 204.128C309.787 201.332 307.946 199.174 305.976 197.284C304.99 196.339 303.972 195.461 302.966 194.604C301.96 193.746 300.968 192.911 300.031 192.05C298.158 190.327 296.514 188.507 295.445 186.223L295.219 186.329ZM313.083 214.774C313.083 223.59 316.002 234.916 319.924 243.097C321.884 247.186 324.101 250.504 326.341 252.329C327.462 253.242 328.598 253.789 329.718 253.86C330.843 253.932 331.933 253.524 332.955 252.563L332.784 252.381C331.804 253.302 330.779 253.678 329.734 253.611C328.684 253.544 327.597 253.029 326.499 252.135C324.302 250.346 322.104 247.067 320.149 242.989C316.241 234.836 313.333 223.547 313.333 214.774H313.083ZM332.955 252.563C334.935 250.696 336.786 249.985 338.48 250.063C340.178 250.141 341.745 251.011 343.154 252.36C345.974 255.059 348.119 259.636 349.347 263.382L349.585 263.304C348.352 259.545 346.192 254.921 343.326 252.179C341.892 250.806 340.271 249.895 338.492 249.814C336.711 249.732 334.797 250.483 332.784 252.381L332.955 252.563ZM349.347 263.382C349.665 264.358 350.255 265.002 351.056 265.377C351.852 265.749 352.847 265.851 353.972 265.765C356.221 265.595 359.042 264.672 361.963 263.572C364.892 262.469 367.919 261.189 370.609 260.285C371.953 259.834 373.206 259.479 374.313 259.288C375.421 259.097 376.373 259.073 377.118 259.275L377.183 259.034C376.387 258.818 375.393 258.848 374.27 259.042C373.145 259.235 371.878 259.595 370.53 260.048C367.835 260.953 364.789 262.241 361.875 263.338C358.952 264.439 356.162 265.349 353.953 265.516C352.849 265.6 351.903 265.497 351.162 265.15C350.426 264.806 349.882 264.217 349.585 263.305L349.347 263.382ZM377.117 259.275C380.188 260.123 386.475 261.803 392.15 264.523C394.988 265.883 397.667 267.5 399.713 269.398C401.759 271.296 403.165 273.467 403.476 275.937L403.724 275.906C403.404 273.358 401.955 271.136 399.883 269.214C397.811 267.293 395.108 265.663 392.258 264.297C386.559 261.566 380.251 259.881 377.184 259.034L377.117 259.275ZM403.476 275.937C403.63 277.213 404.04 278.17 404.673 278.847C405.306 279.525 406.153 279.911 407.158 280.064C409.159 280.369 411.817 279.754 414.778 278.652C420.703 276.447 427.945 272.25 433.775 269.339L433.663 269.115C427.809 272.039 420.6 276.219 414.691 278.418C411.735 279.518 409.129 280.111 407.195 279.817C406.232 279.67 405.442 279.304 404.856 278.676C404.268 278.048 403.874 277.146 403.724 275.907L403.476 275.937ZM433.775 269.338C435.267 268.586 436.454 267.171 437.414 265.271C438.375 263.37 439.114 260.974 439.705 258.244C440.888 252.786 441.483 245.967 442.059 239.057C442.636 232.142 443.193 225.134 444.299 219.281C444.852 216.354 445.54 213.722 446.435 211.537C447.33 209.35 448.427 207.621 449.791 206.492L449.631 206.3C448.223 207.465 447.106 209.236 446.203 211.442C445.3 213.649 444.608 216.299 444.053 219.234C442.945 225.103 442.386 232.126 441.81 239.036C441.234 245.951 440.639 252.752 439.461 258.191C438.872 260.911 438.138 263.284 437.191 265.158C436.244 267.032 435.089 268.396 433.662 269.115L433.775 269.338ZM495.698 441.055C497.564 444.87 501.137 446.77 504.751 448.343C506.564 449.132 508.381 449.836 510.022 450.66C511.66 451.483 513.105 452.419 514.169 453.659L514.359 453.497C513.264 452.219 511.784 451.266 510.134 450.437C508.485 449.609 506.65 448.897 504.851 448.114C501.24 446.542 497.745 444.672 495.923 440.945L495.698 441.055ZM514.169 453.66C516.334 456.178 521.271 460.169 525.677 461.751C527.878 462.54 529.981 462.741 531.539 461.811C533.104 460.877 534.069 458.833 534.069 455.261H533.819C533.819 458.801 532.862 460.73 531.411 461.596C529.952 462.467 527.943 462.298 525.762 461.515C521.406 459.952 516.503 455.99 514.359 453.497L514.169 453.66ZM534.069 455.261C534.069 451.631 531.384 448.4 527.48 445.733C523.57 443.062 518.406 440.934 513.375 439.516C508.345 438.098 503.436 437.387 500.035 437.558C498.339 437.644 496.994 437.95 496.201 438.517C495.8 438.804 495.534 439.162 495.442 439.595C495.35 440.026 495.434 440.514 495.698 441.055L495.923 440.945C495.675 440.437 495.61 440.007 495.686 439.647C495.763 439.288 495.984 438.98 496.346 438.721C497.078 438.197 498.36 437.893 500.047 437.808C503.412 437.639 508.292 438.343 513.307 439.757C518.322 441.17 523.459 443.289 527.339 445.94C531.225 448.594 533.819 451.76 533.819 455.261H534.069ZM464.935 399.899C463.734 403.624 460.551 405.904 456.897 406.524C453.242 407.145 449.126 406.102 446.083 403.189L445.91 403.369C449.014 406.34 453.21 407.404 456.939 406.771C460.668 406.138 463.939 403.805 465.173 399.976L464.935 399.899ZM446.082 403.188C445.3 402.447 444.488 402.013 443.673 401.841C442.857 401.668 442.046 401.76 441.267 402.06C439.714 402.658 438.289 404.082 437.19 405.899C436.09 407.718 435.308 409.943 435.048 412.165C434.789 414.385 435.051 416.612 436.051 418.424L436.27 418.303C435.303 416.55 435.042 414.38 435.297 412.194C435.552 410.009 436.322 407.817 437.404 406.028C438.487 404.237 439.875 402.864 441.357 402.293C442.096 402.009 442.858 401.924 443.621 402.085C444.384 402.246 445.156 402.655 445.91 403.37L446.082 403.188ZM436.051 418.423C436.522 419.281 437.686 420.76 439.402 422.338C441.12 423.917 443.397 425.602 446.101 426.866C451.513 429.396 458.629 430.239 466.357 425.187L466.22 424.978C458.577 429.974 451.554 429.14 446.207 426.64C443.531 425.388 441.274 423.72 439.571 422.154C437.866 420.586 436.724 419.128 436.27 418.303L436.051 418.423ZM466.357 425.187C474.021 420.188 480.449 419.977 485.443 419.659C487.936 419.501 490.093 419.315 491.858 418.477C493.633 417.634 494.998 416.138 495.931 413.392L495.694 413.311C494.779 416.007 493.453 417.443 491.75 418.251C490.037 419.065 487.929 419.251 485.427 419.41C480.43 419.728 473.944 419.94 466.22 424.977L466.357 425.187ZM495.931 413.391C496.876 410.598 495.526 407.878 492.994 405.509C490.46 403.137 486.715 401.088 482.786 399.618C478.855 398.148 474.728 397.253 471.422 397.2C469.77 397.173 468.315 397.356 467.191 397.789C466.065 398.222 465.259 398.911 464.935 399.899L465.172 399.977C465.466 399.083 466.199 398.438 467.281 398.022C468.363 397.605 469.783 397.423 471.418 397.45C474.688 397.503 478.787 398.389 482.698 399.852C486.61 401.315 490.322 403.35 492.824 405.691C495.328 408.035 496.592 410.657 495.694 413.311L495.931 413.391Z" fill="#868686"/>
</g>
<defs>
<filter id="filter0_d_18_193" x="954.11" y="241.596" width="266.015" height="236.529" filterUnits="userSpaceOnUse" color-interpolation-filters="sRGB">
<feFlood flood-opacity="0" result="BackgroundImageFix"/>
<feColorMatrix in="SourceAlpha" type="matrix" values="0 0 0 0 0 0 0 0 0 0 0 0 0 0 0 0 0 0 127 0" result="hardAlpha"/>
<feOffset dy="2"/>
<feGaussianBlur stdDeviation="2"/>
<feColorMatrix type="matrix" values="0 0 0 0 0 0 0 0 0 0 0 0 0 0 0 0 0 0 0.01 0"/>
<feBlend mode="normal" in2="BackgroundImageFix" result="effect1_dropShadow_18_193"/>
<feBlend mode="normal" in="SourceGraphic" in2="effect1_dropShadow_18_193" result="shape"/>
</filter>
<filter id="filter1_d_18_193" x="0.875" y="0.875" width="961.486" height="467.614" filterUnits="userSpaceOnUse" color-interpolation-filters="sRGB">
<feFlood flood-opacity="0" result="BackgroundImageFix"/>
<feColorMatrix in="SourceAlpha" type="matrix" values="0 0 0 0 0 0 0 0 0 0 0 0 0 0 0 0 0 0 127 0" result="hardAlpha"/>
<feOffset dy="2"/>
<feGaussianBlur stdDeviation="2"/>
<feColorMatrix type="matrix" values="0 0 0 0 0 0 0 0 0 0 0 0 0 0 0 0 0 0 0.01 0"/>
<feBlend mode="normal" in2="BackgroundImageFix" result="effect1_dropShadow_18_193"/>
<feBlend mode="normal" in="SourceGraphic" in2="effect1_dropShadow_18_193" result="shape"/>
</filter>
</defs>
</svg>
